%TF.GenerationSoftware,KiCad,Pcbnew,9.0.5*%
%TF.CreationDate,2025-11-21T21:53:36+01:00*%
%TF.ProjectId,keyballTrackballPCB,6b657962-616c-46c5-9472-61636b62616c,1.0*%
%TF.SameCoordinates,Original*%
%TF.FileFunction,Legend,Top*%
%TF.FilePolarity,Positive*%
%FSLAX46Y46*%
G04 Gerber Fmt 4.6, Leading zero omitted, Abs format (unit mm)*
G04 Created by KiCad (PCBNEW 9.0.5) date 2025-11-21 21:53:36*
%MOMM*%
%LPD*%
G01*
G04 APERTURE LIST*
%ADD10C,0.100000*%
G04 APERTURE END LIST*
D10*
X102500000Y-80815228D02*
X102471428Y-80843800D01*
X102471428Y-80843800D02*
X102385714Y-80872371D01*
X102385714Y-80872371D02*
X102328571Y-80872371D01*
X102328571Y-80872371D02*
X102242857Y-80843800D01*
X102242857Y-80843800D02*
X102185714Y-80786657D01*
X102185714Y-80786657D02*
X102157143Y-80729514D01*
X102157143Y-80729514D02*
X102128571Y-80615228D01*
X102128571Y-80615228D02*
X102128571Y-80529514D01*
X102128571Y-80529514D02*
X102157143Y-80415228D01*
X102157143Y-80415228D02*
X102185714Y-80358085D01*
X102185714Y-80358085D02*
X102242857Y-80300942D01*
X102242857Y-80300942D02*
X102328571Y-80272371D01*
X102328571Y-80272371D02*
X102385714Y-80272371D01*
X102385714Y-80272371D02*
X102471428Y-80300942D01*
X102471428Y-80300942D02*
X102500000Y-80329514D01*
X103042857Y-80272371D02*
X102757143Y-80272371D01*
X102757143Y-80272371D02*
X102728571Y-80558085D01*
X102728571Y-80558085D02*
X102757143Y-80529514D01*
X102757143Y-80529514D02*
X102814286Y-80500942D01*
X102814286Y-80500942D02*
X102957143Y-80500942D01*
X102957143Y-80500942D02*
X103014286Y-80529514D01*
X103014286Y-80529514D02*
X103042857Y-80558085D01*
X103042857Y-80558085D02*
X103071428Y-80615228D01*
X103071428Y-80615228D02*
X103071428Y-80758085D01*
X103071428Y-80758085D02*
X103042857Y-80815228D01*
X103042857Y-80815228D02*
X103014286Y-80843800D01*
X103014286Y-80843800D02*
X102957143Y-80872371D01*
X102957143Y-80872371D02*
X102814286Y-80872371D01*
X102814286Y-80872371D02*
X102757143Y-80843800D01*
X102757143Y-80843800D02*
X102728571Y-80815228D01*
X90900000Y-96615228D02*
X90871428Y-96643800D01*
X90871428Y-96643800D02*
X90785714Y-96672371D01*
X90785714Y-96672371D02*
X90728571Y-96672371D01*
X90728571Y-96672371D02*
X90642857Y-96643800D01*
X90642857Y-96643800D02*
X90585714Y-96586657D01*
X90585714Y-96586657D02*
X90557143Y-96529514D01*
X90557143Y-96529514D02*
X90528571Y-96415228D01*
X90528571Y-96415228D02*
X90528571Y-96329514D01*
X90528571Y-96329514D02*
X90557143Y-96215228D01*
X90557143Y-96215228D02*
X90585714Y-96158085D01*
X90585714Y-96158085D02*
X90642857Y-96100942D01*
X90642857Y-96100942D02*
X90728571Y-96072371D01*
X90728571Y-96072371D02*
X90785714Y-96072371D01*
X90785714Y-96072371D02*
X90871428Y-96100942D01*
X90871428Y-96100942D02*
X90900000Y-96129514D01*
X91471428Y-96672371D02*
X91128571Y-96672371D01*
X91300000Y-96672371D02*
X91300000Y-96072371D01*
X91300000Y-96072371D02*
X91242857Y-96158085D01*
X91242857Y-96158085D02*
X91185714Y-96215228D01*
X91185714Y-96215228D02*
X91128571Y-96243800D01*
X84500000Y-86272371D02*
X84300000Y-85986657D01*
X84157143Y-86272371D02*
X84157143Y-85672371D01*
X84157143Y-85672371D02*
X84385714Y-85672371D01*
X84385714Y-85672371D02*
X84442857Y-85700942D01*
X84442857Y-85700942D02*
X84471428Y-85729514D01*
X84471428Y-85729514D02*
X84500000Y-85786657D01*
X84500000Y-85786657D02*
X84500000Y-85872371D01*
X84500000Y-85872371D02*
X84471428Y-85929514D01*
X84471428Y-85929514D02*
X84442857Y-85958085D01*
X84442857Y-85958085D02*
X84385714Y-85986657D01*
X84385714Y-85986657D02*
X84157143Y-85986657D01*
X84785714Y-86272371D02*
X84900000Y-86272371D01*
X84900000Y-86272371D02*
X84957143Y-86243800D01*
X84957143Y-86243800D02*
X84985714Y-86215228D01*
X84985714Y-86215228D02*
X85042857Y-86129514D01*
X85042857Y-86129514D02*
X85071428Y-86015228D01*
X85071428Y-86015228D02*
X85071428Y-85786657D01*
X85071428Y-85786657D02*
X85042857Y-85729514D01*
X85042857Y-85729514D02*
X85014286Y-85700942D01*
X85014286Y-85700942D02*
X84957143Y-85672371D01*
X84957143Y-85672371D02*
X84842857Y-85672371D01*
X84842857Y-85672371D02*
X84785714Y-85700942D01*
X84785714Y-85700942D02*
X84757143Y-85729514D01*
X84757143Y-85729514D02*
X84728571Y-85786657D01*
X84728571Y-85786657D02*
X84728571Y-85929514D01*
X84728571Y-85929514D02*
X84757143Y-85986657D01*
X84757143Y-85986657D02*
X84785714Y-86015228D01*
X84785714Y-86015228D02*
X84842857Y-86043800D01*
X84842857Y-86043800D02*
X84957143Y-86043800D01*
X84957143Y-86043800D02*
X85014286Y-86015228D01*
X85014286Y-86015228D02*
X85042857Y-85986657D01*
X85042857Y-85986657D02*
X85071428Y-85929514D01*
X104900000Y-84615228D02*
X104871428Y-84643800D01*
X104871428Y-84643800D02*
X104785714Y-84672371D01*
X104785714Y-84672371D02*
X104728571Y-84672371D01*
X104728571Y-84672371D02*
X104642857Y-84643800D01*
X104642857Y-84643800D02*
X104585714Y-84586657D01*
X104585714Y-84586657D02*
X104557143Y-84529514D01*
X104557143Y-84529514D02*
X104528571Y-84415228D01*
X104528571Y-84415228D02*
X104528571Y-84329514D01*
X104528571Y-84329514D02*
X104557143Y-84215228D01*
X104557143Y-84215228D02*
X104585714Y-84158085D01*
X104585714Y-84158085D02*
X104642857Y-84100942D01*
X104642857Y-84100942D02*
X104728571Y-84072371D01*
X104728571Y-84072371D02*
X104785714Y-84072371D01*
X104785714Y-84072371D02*
X104871428Y-84100942D01*
X104871428Y-84100942D02*
X104900000Y-84129514D01*
X105414286Y-84272371D02*
X105414286Y-84672371D01*
X105271428Y-84043800D02*
X105128571Y-84472371D01*
X105128571Y-84472371D02*
X105500000Y-84472371D01*
X85214285Y-92672371D02*
X85014285Y-92386657D01*
X84871428Y-92672371D02*
X84871428Y-92072371D01*
X84871428Y-92072371D02*
X85099999Y-92072371D01*
X85099999Y-92072371D02*
X85157142Y-92100942D01*
X85157142Y-92100942D02*
X85185713Y-92129514D01*
X85185713Y-92129514D02*
X85214285Y-92186657D01*
X85214285Y-92186657D02*
X85214285Y-92272371D01*
X85214285Y-92272371D02*
X85185713Y-92329514D01*
X85185713Y-92329514D02*
X85157142Y-92358085D01*
X85157142Y-92358085D02*
X85099999Y-92386657D01*
X85099999Y-92386657D02*
X84871428Y-92386657D01*
X85785713Y-92672371D02*
X85442856Y-92672371D01*
X85614285Y-92672371D02*
X85614285Y-92072371D01*
X85614285Y-92072371D02*
X85557142Y-92158085D01*
X85557142Y-92158085D02*
X85499999Y-92215228D01*
X85499999Y-92215228D02*
X85442856Y-92243800D01*
X86157142Y-92072371D02*
X86214285Y-92072371D01*
X86214285Y-92072371D02*
X86271428Y-92100942D01*
X86271428Y-92100942D02*
X86300000Y-92129514D01*
X86300000Y-92129514D02*
X86328571Y-92186657D01*
X86328571Y-92186657D02*
X86357142Y-92300942D01*
X86357142Y-92300942D02*
X86357142Y-92443800D01*
X86357142Y-92443800D02*
X86328571Y-92558085D01*
X86328571Y-92558085D02*
X86300000Y-92615228D01*
X86300000Y-92615228D02*
X86271428Y-92643800D01*
X86271428Y-92643800D02*
X86214285Y-92672371D01*
X86214285Y-92672371D02*
X86157142Y-92672371D01*
X86157142Y-92672371D02*
X86100000Y-92643800D01*
X86100000Y-92643800D02*
X86071428Y-92615228D01*
X86071428Y-92615228D02*
X86042857Y-92558085D01*
X86042857Y-92558085D02*
X86014285Y-92443800D01*
X86014285Y-92443800D02*
X86014285Y-92300942D01*
X86014285Y-92300942D02*
X86042857Y-92186657D01*
X86042857Y-92186657D02*
X86071428Y-92129514D01*
X86071428Y-92129514D02*
X86100000Y-92100942D01*
X86100000Y-92100942D02*
X86157142Y-92072371D01*
X103614285Y-92672371D02*
X103414285Y-92386657D01*
X103271428Y-92672371D02*
X103271428Y-92072371D01*
X103271428Y-92072371D02*
X103499999Y-92072371D01*
X103499999Y-92072371D02*
X103557142Y-92100942D01*
X103557142Y-92100942D02*
X103585713Y-92129514D01*
X103585713Y-92129514D02*
X103614285Y-92186657D01*
X103614285Y-92186657D02*
X103614285Y-92272371D01*
X103614285Y-92272371D02*
X103585713Y-92329514D01*
X103585713Y-92329514D02*
X103557142Y-92358085D01*
X103557142Y-92358085D02*
X103499999Y-92386657D01*
X103499999Y-92386657D02*
X103271428Y-92386657D01*
X104185713Y-92672371D02*
X103842856Y-92672371D01*
X104014285Y-92672371D02*
X104014285Y-92072371D01*
X104014285Y-92072371D02*
X103957142Y-92158085D01*
X103957142Y-92158085D02*
X103899999Y-92215228D01*
X103899999Y-92215228D02*
X103842856Y-92243800D01*
X104757142Y-92672371D02*
X104414285Y-92672371D01*
X104585714Y-92672371D02*
X104585714Y-92072371D01*
X104585714Y-92072371D02*
X104528571Y-92158085D01*
X104528571Y-92158085D02*
X104471428Y-92215228D01*
X104471428Y-92215228D02*
X104414285Y-92243800D01*
X84500000Y-90472371D02*
X84300000Y-90186657D01*
X84157143Y-90472371D02*
X84157143Y-89872371D01*
X84157143Y-89872371D02*
X84385714Y-89872371D01*
X84385714Y-89872371D02*
X84442857Y-89900942D01*
X84442857Y-89900942D02*
X84471428Y-89929514D01*
X84471428Y-89929514D02*
X84500000Y-89986657D01*
X84500000Y-89986657D02*
X84500000Y-90072371D01*
X84500000Y-90072371D02*
X84471428Y-90129514D01*
X84471428Y-90129514D02*
X84442857Y-90158085D01*
X84442857Y-90158085D02*
X84385714Y-90186657D01*
X84385714Y-90186657D02*
X84157143Y-90186657D01*
X84842857Y-90129514D02*
X84785714Y-90100942D01*
X84785714Y-90100942D02*
X84757143Y-90072371D01*
X84757143Y-90072371D02*
X84728571Y-90015228D01*
X84728571Y-90015228D02*
X84728571Y-89986657D01*
X84728571Y-89986657D02*
X84757143Y-89929514D01*
X84757143Y-89929514D02*
X84785714Y-89900942D01*
X84785714Y-89900942D02*
X84842857Y-89872371D01*
X84842857Y-89872371D02*
X84957143Y-89872371D01*
X84957143Y-89872371D02*
X85014286Y-89900942D01*
X85014286Y-89900942D02*
X85042857Y-89929514D01*
X85042857Y-89929514D02*
X85071428Y-89986657D01*
X85071428Y-89986657D02*
X85071428Y-90015228D01*
X85071428Y-90015228D02*
X85042857Y-90072371D01*
X85042857Y-90072371D02*
X85014286Y-90100942D01*
X85014286Y-90100942D02*
X84957143Y-90129514D01*
X84957143Y-90129514D02*
X84842857Y-90129514D01*
X84842857Y-90129514D02*
X84785714Y-90158085D01*
X84785714Y-90158085D02*
X84757143Y-90186657D01*
X84757143Y-90186657D02*
X84728571Y-90243800D01*
X84728571Y-90243800D02*
X84728571Y-90358085D01*
X84728571Y-90358085D02*
X84757143Y-90415228D01*
X84757143Y-90415228D02*
X84785714Y-90443800D01*
X84785714Y-90443800D02*
X84842857Y-90472371D01*
X84842857Y-90472371D02*
X84957143Y-90472371D01*
X84957143Y-90472371D02*
X85014286Y-90443800D01*
X85014286Y-90443800D02*
X85042857Y-90415228D01*
X85042857Y-90415228D02*
X85071428Y-90358085D01*
X85071428Y-90358085D02*
X85071428Y-90243800D01*
X85071428Y-90243800D02*
X85042857Y-90186657D01*
X85042857Y-90186657D02*
X85014286Y-90158085D01*
X85014286Y-90158085D02*
X84957143Y-90129514D01*
X103900000Y-101815228D02*
X103871428Y-101843800D01*
X103871428Y-101843800D02*
X103785714Y-101872371D01*
X103785714Y-101872371D02*
X103728571Y-101872371D01*
X103728571Y-101872371D02*
X103642857Y-101843800D01*
X103642857Y-101843800D02*
X103585714Y-101786657D01*
X103585714Y-101786657D02*
X103557143Y-101729514D01*
X103557143Y-101729514D02*
X103528571Y-101615228D01*
X103528571Y-101615228D02*
X103528571Y-101529514D01*
X103528571Y-101529514D02*
X103557143Y-101415228D01*
X103557143Y-101415228D02*
X103585714Y-101358085D01*
X103585714Y-101358085D02*
X103642857Y-101300942D01*
X103642857Y-101300942D02*
X103728571Y-101272371D01*
X103728571Y-101272371D02*
X103785714Y-101272371D01*
X103785714Y-101272371D02*
X103871428Y-101300942D01*
X103871428Y-101300942D02*
X103900000Y-101329514D01*
X104100000Y-101272371D02*
X104500000Y-101272371D01*
X104500000Y-101272371D02*
X104242857Y-101872371D01*
X84542857Y-102072371D02*
X84542857Y-102558085D01*
X84542857Y-102558085D02*
X84571428Y-102615228D01*
X84571428Y-102615228D02*
X84600000Y-102643800D01*
X84600000Y-102643800D02*
X84657142Y-102672371D01*
X84657142Y-102672371D02*
X84771428Y-102672371D01*
X84771428Y-102672371D02*
X84828571Y-102643800D01*
X84828571Y-102643800D02*
X84857142Y-102615228D01*
X84857142Y-102615228D02*
X84885714Y-102558085D01*
X84885714Y-102558085D02*
X84885714Y-102072371D01*
X85142856Y-102129514D02*
X85171428Y-102100942D01*
X85171428Y-102100942D02*
X85228571Y-102072371D01*
X85228571Y-102072371D02*
X85371428Y-102072371D01*
X85371428Y-102072371D02*
X85428571Y-102100942D01*
X85428571Y-102100942D02*
X85457142Y-102129514D01*
X85457142Y-102129514D02*
X85485713Y-102186657D01*
X85485713Y-102186657D02*
X85485713Y-102243800D01*
X85485713Y-102243800D02*
X85457142Y-102329514D01*
X85457142Y-102329514D02*
X85114285Y-102672371D01*
X85114285Y-102672371D02*
X85485713Y-102672371D01*
X100742857Y-101272371D02*
X100742857Y-101758085D01*
X100742857Y-101758085D02*
X100771428Y-101815228D01*
X100771428Y-101815228D02*
X100800000Y-101843800D01*
X100800000Y-101843800D02*
X100857142Y-101872371D01*
X100857142Y-101872371D02*
X100971428Y-101872371D01*
X100971428Y-101872371D02*
X101028571Y-101843800D01*
X101028571Y-101843800D02*
X101057142Y-101815228D01*
X101057142Y-101815228D02*
X101085714Y-101758085D01*
X101085714Y-101758085D02*
X101085714Y-101272371D01*
X101314285Y-101272371D02*
X101685713Y-101272371D01*
X101685713Y-101272371D02*
X101485713Y-101500942D01*
X101485713Y-101500942D02*
X101571428Y-101500942D01*
X101571428Y-101500942D02*
X101628571Y-101529514D01*
X101628571Y-101529514D02*
X101657142Y-101558085D01*
X101657142Y-101558085D02*
X101685713Y-101615228D01*
X101685713Y-101615228D02*
X101685713Y-101758085D01*
X101685713Y-101758085D02*
X101657142Y-101815228D01*
X101657142Y-101815228D02*
X101628571Y-101843800D01*
X101628571Y-101843800D02*
X101571428Y-101872371D01*
X101571428Y-101872371D02*
X101399999Y-101872371D01*
X101399999Y-101872371D02*
X101342856Y-101843800D01*
X101342856Y-101843800D02*
X101314285Y-101815228D01*
X102300000Y-83615228D02*
X102271428Y-83643800D01*
X102271428Y-83643800D02*
X102185714Y-83672371D01*
X102185714Y-83672371D02*
X102128571Y-83672371D01*
X102128571Y-83672371D02*
X102042857Y-83643800D01*
X102042857Y-83643800D02*
X101985714Y-83586657D01*
X101985714Y-83586657D02*
X101957143Y-83529514D01*
X101957143Y-83529514D02*
X101928571Y-83415228D01*
X101928571Y-83415228D02*
X101928571Y-83329514D01*
X101928571Y-83329514D02*
X101957143Y-83215228D01*
X101957143Y-83215228D02*
X101985714Y-83158085D01*
X101985714Y-83158085D02*
X102042857Y-83100942D01*
X102042857Y-83100942D02*
X102128571Y-83072371D01*
X102128571Y-83072371D02*
X102185714Y-83072371D01*
X102185714Y-83072371D02*
X102271428Y-83100942D01*
X102271428Y-83100942D02*
X102300000Y-83129514D01*
X102814286Y-83072371D02*
X102700000Y-83072371D01*
X102700000Y-83072371D02*
X102642857Y-83100942D01*
X102642857Y-83100942D02*
X102614286Y-83129514D01*
X102614286Y-83129514D02*
X102557143Y-83215228D01*
X102557143Y-83215228D02*
X102528571Y-83329514D01*
X102528571Y-83329514D02*
X102528571Y-83558085D01*
X102528571Y-83558085D02*
X102557143Y-83615228D01*
X102557143Y-83615228D02*
X102585714Y-83643800D01*
X102585714Y-83643800D02*
X102642857Y-83672371D01*
X102642857Y-83672371D02*
X102757143Y-83672371D01*
X102757143Y-83672371D02*
X102814286Y-83643800D01*
X102814286Y-83643800D02*
X102842857Y-83615228D01*
X102842857Y-83615228D02*
X102871428Y-83558085D01*
X102871428Y-83558085D02*
X102871428Y-83415228D01*
X102871428Y-83415228D02*
X102842857Y-83358085D01*
X102842857Y-83358085D02*
X102814286Y-83329514D01*
X102814286Y-83329514D02*
X102757143Y-83300942D01*
X102757143Y-83300942D02*
X102642857Y-83300942D01*
X102642857Y-83300942D02*
X102585714Y-83329514D01*
X102585714Y-83329514D02*
X102557143Y-83358085D01*
X102557143Y-83358085D02*
X102528571Y-83415228D01*
X97900000Y-101472371D02*
X97700000Y-101186657D01*
X97557143Y-101472371D02*
X97557143Y-100872371D01*
X97557143Y-100872371D02*
X97785714Y-100872371D01*
X97785714Y-100872371D02*
X97842857Y-100900942D01*
X97842857Y-100900942D02*
X97871428Y-100929514D01*
X97871428Y-100929514D02*
X97900000Y-100986657D01*
X97900000Y-100986657D02*
X97900000Y-101072371D01*
X97900000Y-101072371D02*
X97871428Y-101129514D01*
X97871428Y-101129514D02*
X97842857Y-101158085D01*
X97842857Y-101158085D02*
X97785714Y-101186657D01*
X97785714Y-101186657D02*
X97557143Y-101186657D01*
X98128571Y-100929514D02*
X98157143Y-100900942D01*
X98157143Y-100900942D02*
X98214286Y-100872371D01*
X98214286Y-100872371D02*
X98357143Y-100872371D01*
X98357143Y-100872371D02*
X98414286Y-100900942D01*
X98414286Y-100900942D02*
X98442857Y-100929514D01*
X98442857Y-100929514D02*
X98471428Y-100986657D01*
X98471428Y-100986657D02*
X98471428Y-101043800D01*
X98471428Y-101043800D02*
X98442857Y-101129514D01*
X98442857Y-101129514D02*
X98100000Y-101472371D01*
X98100000Y-101472371D02*
X98471428Y-101472371D01*
X87132776Y-96672371D02*
X86932776Y-96386657D01*
X86789919Y-96672371D02*
X86789919Y-96072371D01*
X86789919Y-96072371D02*
X87018490Y-96072371D01*
X87018490Y-96072371D02*
X87075633Y-96100942D01*
X87075633Y-96100942D02*
X87104204Y-96129514D01*
X87104204Y-96129514D02*
X87132776Y-96186657D01*
X87132776Y-96186657D02*
X87132776Y-96272371D01*
X87132776Y-96272371D02*
X87104204Y-96329514D01*
X87104204Y-96329514D02*
X87075633Y-96358085D01*
X87075633Y-96358085D02*
X87018490Y-96386657D01*
X87018490Y-96386657D02*
X86789919Y-96386657D01*
X87647062Y-96272371D02*
X87647062Y-96672371D01*
X87504204Y-96043800D02*
X87361347Y-96472371D01*
X87361347Y-96472371D02*
X87732776Y-96472371D01*
X86300000Y-83672371D02*
X86100000Y-83386657D01*
X85957143Y-83672371D02*
X85957143Y-83072371D01*
X85957143Y-83072371D02*
X86185714Y-83072371D01*
X86185714Y-83072371D02*
X86242857Y-83100942D01*
X86242857Y-83100942D02*
X86271428Y-83129514D01*
X86271428Y-83129514D02*
X86300000Y-83186657D01*
X86300000Y-83186657D02*
X86300000Y-83272371D01*
X86300000Y-83272371D02*
X86271428Y-83329514D01*
X86271428Y-83329514D02*
X86242857Y-83358085D01*
X86242857Y-83358085D02*
X86185714Y-83386657D01*
X86185714Y-83386657D02*
X85957143Y-83386657D01*
X86500000Y-83072371D02*
X86900000Y-83072371D01*
X86900000Y-83072371D02*
X86642857Y-83672371D01*
X101900000Y-92672371D02*
X101700000Y-92386657D01*
X101557143Y-92672371D02*
X101557143Y-92072371D01*
X101557143Y-92072371D02*
X101785714Y-92072371D01*
X101785714Y-92072371D02*
X101842857Y-92100942D01*
X101842857Y-92100942D02*
X101871428Y-92129514D01*
X101871428Y-92129514D02*
X101900000Y-92186657D01*
X101900000Y-92186657D02*
X101900000Y-92272371D01*
X101900000Y-92272371D02*
X101871428Y-92329514D01*
X101871428Y-92329514D02*
X101842857Y-92358085D01*
X101842857Y-92358085D02*
X101785714Y-92386657D01*
X101785714Y-92386657D02*
X101557143Y-92386657D01*
X102442857Y-92072371D02*
X102157143Y-92072371D01*
X102157143Y-92072371D02*
X102128571Y-92358085D01*
X102128571Y-92358085D02*
X102157143Y-92329514D01*
X102157143Y-92329514D02*
X102214286Y-92300942D01*
X102214286Y-92300942D02*
X102357143Y-92300942D01*
X102357143Y-92300942D02*
X102414286Y-92329514D01*
X102414286Y-92329514D02*
X102442857Y-92358085D01*
X102442857Y-92358085D02*
X102471428Y-92415228D01*
X102471428Y-92415228D02*
X102471428Y-92558085D01*
X102471428Y-92558085D02*
X102442857Y-92615228D01*
X102442857Y-92615228D02*
X102414286Y-92643800D01*
X102414286Y-92643800D02*
X102357143Y-92672371D01*
X102357143Y-92672371D02*
X102214286Y-92672371D01*
X102214286Y-92672371D02*
X102157143Y-92643800D01*
X102157143Y-92643800D02*
X102128571Y-92615228D01*
X84700000Y-100872371D02*
X84500000Y-100586657D01*
X84357143Y-100872371D02*
X84357143Y-100272371D01*
X84357143Y-100272371D02*
X84585714Y-100272371D01*
X84585714Y-100272371D02*
X84642857Y-100300942D01*
X84642857Y-100300942D02*
X84671428Y-100329514D01*
X84671428Y-100329514D02*
X84700000Y-100386657D01*
X84700000Y-100386657D02*
X84700000Y-100472371D01*
X84700000Y-100472371D02*
X84671428Y-100529514D01*
X84671428Y-100529514D02*
X84642857Y-100558085D01*
X84642857Y-100558085D02*
X84585714Y-100586657D01*
X84585714Y-100586657D02*
X84357143Y-100586657D01*
X84900000Y-100272371D02*
X85271428Y-100272371D01*
X85271428Y-100272371D02*
X85071428Y-100500942D01*
X85071428Y-100500942D02*
X85157143Y-100500942D01*
X85157143Y-100500942D02*
X85214286Y-100529514D01*
X85214286Y-100529514D02*
X85242857Y-100558085D01*
X85242857Y-100558085D02*
X85271428Y-100615228D01*
X85271428Y-100615228D02*
X85271428Y-100758085D01*
X85271428Y-100758085D02*
X85242857Y-100815228D01*
X85242857Y-100815228D02*
X85214286Y-100843800D01*
X85214286Y-100843800D02*
X85157143Y-100872371D01*
X85157143Y-100872371D02*
X84985714Y-100872371D01*
X84985714Y-100872371D02*
X84928571Y-100843800D01*
X84928571Y-100843800D02*
X84900000Y-100815228D01*
X103700000Y-88215228D02*
X103671428Y-88243800D01*
X103671428Y-88243800D02*
X103585714Y-88272371D01*
X103585714Y-88272371D02*
X103528571Y-88272371D01*
X103528571Y-88272371D02*
X103442857Y-88243800D01*
X103442857Y-88243800D02*
X103385714Y-88186657D01*
X103385714Y-88186657D02*
X103357143Y-88129514D01*
X103357143Y-88129514D02*
X103328571Y-88015228D01*
X103328571Y-88015228D02*
X103328571Y-87929514D01*
X103328571Y-87929514D02*
X103357143Y-87815228D01*
X103357143Y-87815228D02*
X103385714Y-87758085D01*
X103385714Y-87758085D02*
X103442857Y-87700942D01*
X103442857Y-87700942D02*
X103528571Y-87672371D01*
X103528571Y-87672371D02*
X103585714Y-87672371D01*
X103585714Y-87672371D02*
X103671428Y-87700942D01*
X103671428Y-87700942D02*
X103700000Y-87729514D01*
X103900000Y-87672371D02*
X104271428Y-87672371D01*
X104271428Y-87672371D02*
X104071428Y-87900942D01*
X104071428Y-87900942D02*
X104157143Y-87900942D01*
X104157143Y-87900942D02*
X104214286Y-87929514D01*
X104214286Y-87929514D02*
X104242857Y-87958085D01*
X104242857Y-87958085D02*
X104271428Y-88015228D01*
X104271428Y-88015228D02*
X104271428Y-88158085D01*
X104271428Y-88158085D02*
X104242857Y-88215228D01*
X104242857Y-88215228D02*
X104214286Y-88243800D01*
X104214286Y-88243800D02*
X104157143Y-88272371D01*
X104157143Y-88272371D02*
X103985714Y-88272371D01*
X103985714Y-88272371D02*
X103928571Y-88243800D01*
X103928571Y-88243800D02*
X103900000Y-88215228D01*
X91942857Y-103872371D02*
X91942857Y-104358085D01*
X91942857Y-104358085D02*
X91971428Y-104415228D01*
X91971428Y-104415228D02*
X92000000Y-104443800D01*
X92000000Y-104443800D02*
X92057142Y-104472371D01*
X92057142Y-104472371D02*
X92171428Y-104472371D01*
X92171428Y-104472371D02*
X92228571Y-104443800D01*
X92228571Y-104443800D02*
X92257142Y-104415228D01*
X92257142Y-104415228D02*
X92285714Y-104358085D01*
X92285714Y-104358085D02*
X92285714Y-103872371D01*
X92885713Y-104472371D02*
X92542856Y-104472371D01*
X92714285Y-104472371D02*
X92714285Y-103872371D01*
X92714285Y-103872371D02*
X92657142Y-103958085D01*
X92657142Y-103958085D02*
X92599999Y-104015228D01*
X92599999Y-104015228D02*
X92542856Y-104043800D01*
X99900000Y-96672371D02*
X99700000Y-96386657D01*
X99557143Y-96672371D02*
X99557143Y-96072371D01*
X99557143Y-96072371D02*
X99785714Y-96072371D01*
X99785714Y-96072371D02*
X99842857Y-96100942D01*
X99842857Y-96100942D02*
X99871428Y-96129514D01*
X99871428Y-96129514D02*
X99900000Y-96186657D01*
X99900000Y-96186657D02*
X99900000Y-96272371D01*
X99900000Y-96272371D02*
X99871428Y-96329514D01*
X99871428Y-96329514D02*
X99842857Y-96358085D01*
X99842857Y-96358085D02*
X99785714Y-96386657D01*
X99785714Y-96386657D02*
X99557143Y-96386657D01*
X100414286Y-96072371D02*
X100300000Y-96072371D01*
X100300000Y-96072371D02*
X100242857Y-96100942D01*
X100242857Y-96100942D02*
X100214286Y-96129514D01*
X100214286Y-96129514D02*
X100157143Y-96215228D01*
X100157143Y-96215228D02*
X100128571Y-96329514D01*
X100128571Y-96329514D02*
X100128571Y-96558085D01*
X100128571Y-96558085D02*
X100157143Y-96615228D01*
X100157143Y-96615228D02*
X100185714Y-96643800D01*
X100185714Y-96643800D02*
X100242857Y-96672371D01*
X100242857Y-96672371D02*
X100357143Y-96672371D01*
X100357143Y-96672371D02*
X100414286Y-96643800D01*
X100414286Y-96643800D02*
X100442857Y-96615228D01*
X100442857Y-96615228D02*
X100471428Y-96558085D01*
X100471428Y-96558085D02*
X100471428Y-96415228D01*
X100471428Y-96415228D02*
X100442857Y-96358085D01*
X100442857Y-96358085D02*
X100414286Y-96329514D01*
X100414286Y-96329514D02*
X100357143Y-96300942D01*
X100357143Y-96300942D02*
X100242857Y-96300942D01*
X100242857Y-96300942D02*
X100185714Y-96329514D01*
X100185714Y-96329514D02*
X100157143Y-96358085D01*
X100157143Y-96358085D02*
X100128571Y-96415228D01*
X105300000Y-96672371D02*
X105100000Y-96386657D01*
X104957143Y-96672371D02*
X104957143Y-96072371D01*
X104957143Y-96072371D02*
X105185714Y-96072371D01*
X105185714Y-96072371D02*
X105242857Y-96100942D01*
X105242857Y-96100942D02*
X105271428Y-96129514D01*
X105271428Y-96129514D02*
X105300000Y-96186657D01*
X105300000Y-96186657D02*
X105300000Y-96272371D01*
X105300000Y-96272371D02*
X105271428Y-96329514D01*
X105271428Y-96329514D02*
X105242857Y-96358085D01*
X105242857Y-96358085D02*
X105185714Y-96386657D01*
X105185714Y-96386657D02*
X104957143Y-96386657D01*
X105871428Y-96672371D02*
X105528571Y-96672371D01*
X105700000Y-96672371D02*
X105700000Y-96072371D01*
X105700000Y-96072371D02*
X105642857Y-96158085D01*
X105642857Y-96158085D02*
X105585714Y-96215228D01*
X105585714Y-96215228D02*
X105528571Y-96243800D01*
X94900000Y-96615228D02*
X94871428Y-96643800D01*
X94871428Y-96643800D02*
X94785714Y-96672371D01*
X94785714Y-96672371D02*
X94728571Y-96672371D01*
X94728571Y-96672371D02*
X94642857Y-96643800D01*
X94642857Y-96643800D02*
X94585714Y-96586657D01*
X94585714Y-96586657D02*
X94557143Y-96529514D01*
X94557143Y-96529514D02*
X94528571Y-96415228D01*
X94528571Y-96415228D02*
X94528571Y-96329514D01*
X94528571Y-96329514D02*
X94557143Y-96215228D01*
X94557143Y-96215228D02*
X94585714Y-96158085D01*
X94585714Y-96158085D02*
X94642857Y-96100942D01*
X94642857Y-96100942D02*
X94728571Y-96072371D01*
X94728571Y-96072371D02*
X94785714Y-96072371D01*
X94785714Y-96072371D02*
X94871428Y-96100942D01*
X94871428Y-96100942D02*
X94900000Y-96129514D01*
X95128571Y-96129514D02*
X95157143Y-96100942D01*
X95157143Y-96100942D02*
X95214286Y-96072371D01*
X95214286Y-96072371D02*
X95357143Y-96072371D01*
X95357143Y-96072371D02*
X95414286Y-96100942D01*
X95414286Y-96100942D02*
X95442857Y-96129514D01*
X95442857Y-96129514D02*
X95471428Y-96186657D01*
X95471428Y-96186657D02*
X95471428Y-96243800D01*
X95471428Y-96243800D02*
X95442857Y-96329514D01*
X95442857Y-96329514D02*
X95100000Y-96672371D01*
X95100000Y-96672371D02*
X95471428Y-96672371D01*
%TO.C,C5*%
X103490000Y-81791233D02*
X103490000Y-82083767D01*
X104510000Y-81791233D02*
X104510000Y-82083767D01*
%TO.C,C1*%
X90991233Y-97090000D02*
X91283767Y-97090000D01*
X90991233Y-98110000D02*
X91283767Y-98110000D01*
%TO.C,R9*%
X85477500Y-86342224D02*
X85477500Y-85832776D01*
X86522500Y-86342224D02*
X86522500Y-85832776D01*
%TO.C,C4*%
X104690000Y-86316233D02*
X104690000Y-86608767D01*
X105710000Y-86316233D02*
X105710000Y-86608767D01*
%TO.C,R10*%
X85477500Y-94232776D02*
X85477500Y-94742224D01*
X86522500Y-94232776D02*
X86522500Y-94742224D01*
%TO.C,R11*%
X103477500Y-94232776D02*
X103477500Y-94742224D01*
X104522500Y-94232776D02*
X104522500Y-94742224D01*
%TO.C,R8*%
X85477500Y-90567224D02*
X85477500Y-90057776D01*
X86522500Y-90567224D02*
X86522500Y-90057776D01*
%TO.C,C7*%
X104490000Y-102591233D02*
X104490000Y-102883767D01*
X105510000Y-102591233D02*
X105510000Y-102883767D01*
%TO.C,U2*%
X88000000Y-101615000D02*
X86850000Y-101615000D01*
X88000000Y-101615000D02*
X89150000Y-101615000D01*
X88000000Y-103985000D02*
X86850000Y-103985000D01*
X88000000Y-103985000D02*
X89150000Y-103985000D01*
X90615000Y-103790000D02*
X90285000Y-103550000D01*
X90615000Y-103310000D01*
X90615000Y-103790000D01*
G36*
X90615000Y-103790000D02*
G01*
X90285000Y-103550000D01*
X90615000Y-103310000D01*
X90615000Y-103790000D01*
G37*
%TO.C,U3*%
X101600000Y-102015000D02*
X100450000Y-102015000D01*
X101600000Y-102015000D02*
X102750000Y-102015000D01*
X101600000Y-104385000D02*
X100450000Y-104385000D01*
X101600000Y-104385000D02*
X102750000Y-104385000D01*
X104215000Y-104190000D02*
X103885000Y-103950000D01*
X104215000Y-103710000D01*
X104215000Y-104190000D01*
G36*
X104215000Y-104190000D02*
G01*
X103885000Y-103950000D01*
X104215000Y-103710000D01*
X104215000Y-104190000D01*
G37*
%TO.C,C6*%
X102090000Y-85316233D02*
X102090000Y-85608767D01*
X103110000Y-85316233D02*
X103110000Y-85608767D01*
%TO.C,R2*%
X97477500Y-103342224D02*
X97477500Y-102832776D01*
X98522500Y-103342224D02*
X98522500Y-102832776D01*
%TO.C,R4*%
X87232776Y-97077500D02*
X87742224Y-97077500D01*
X87232776Y-98122500D02*
X87742224Y-98122500D01*
%TO.C,R7*%
X84477500Y-82367224D02*
X84477500Y-81857776D01*
X85522500Y-82367224D02*
X85522500Y-81857776D01*
%TO.C,R5*%
X101677500Y-94232776D02*
X101677500Y-94742224D01*
X102722500Y-94232776D02*
X102722500Y-94742224D01*
%TO.C,R3*%
X84277500Y-98257776D02*
X84277500Y-98767224D01*
X85322500Y-98257776D02*
X85322500Y-98767224D01*
%TO.C,C3*%
X103490000Y-89916233D02*
X103490000Y-90208767D01*
X104510000Y-89916233D02*
X104510000Y-90208767D01*
%TO.C,U1*%
X95062500Y-101490000D02*
X94262500Y-101490000D01*
X95062500Y-101490000D02*
X95862500Y-101490000D01*
X95062500Y-104610000D02*
X94262500Y-104610000D01*
X95062500Y-104610000D02*
X95862500Y-104610000D01*
X93762500Y-101540000D02*
X93522500Y-101210000D01*
X94002500Y-101210000D01*
X93762500Y-101540000D01*
G36*
X93762500Y-101540000D02*
G01*
X93522500Y-101210000D01*
X94002500Y-101210000D01*
X93762500Y-101540000D01*
G37*
%TO.C,R6*%
X99857776Y-97077500D02*
X100367224Y-97077500D01*
X99857776Y-98122500D02*
X100367224Y-98122500D01*
%TO.C,R1*%
X104277500Y-98257776D02*
X104277500Y-98767224D01*
X105322500Y-98257776D02*
X105322500Y-98767224D01*
%TO.C,C2*%
X94991233Y-97090000D02*
X95283767Y-97090000D01*
X94991233Y-98110000D02*
X95283767Y-98110000D01*
%TD*%
M02*
