M48
; DRILL file {KiCad 9.0.5} date 2025-11-21T21:52:57+0100
; FORMAT={-:-/ absolute / metric / decimal}
; #@! TF.CreationDate,2025-11-21T21:52:57+01:00
; #@! TF.GenerationSoftware,Kicad,Pcbnew,9.0.5
; #@! TF.FileFunction,Plated,1,2,PTH
FMAT,2
METRIC
; #@! TA.AperFunction,Plated,PTH,ViaDrill
T1C0.300
; #@! TA.AperFunction,Plated,PTH,ComponentDrill
T2C0.700
; #@! TA.AperFunction,Plated,PTH,ComponentDrill
T3C1.000
%
G90
G05
T1
X84.801Y-95.4
X85.013Y-84.188
X85.407Y-103.55
X85.628Y-97.028
X86.8Y-88.6
X87.4Y-84.8
X88.246Y-96.224
X90.6Y-101.8
X91.4Y-102.5
X93.0Y-97.6
X96.0Y-96.6
X96.1Y-101.3
X98.0Y-97.4
X98.9Y-101.7
X99.0Y-104.2
X100.2Y-101.4
X102.2Y-97.4
X102.2Y-101.4
X103.0Y-101.4
X103.8Y-85.8
X104.7Y-91.7
X105.2Y-100.6
X105.399Y-88.6
T2
X89.65Y-81.77
X89.65Y-83.55
X89.65Y-85.33
X89.65Y-87.11
X89.65Y-88.89
X89.65Y-90.67
X89.65Y-92.45
X89.65Y-94.23
X100.35Y-80.88
X100.35Y-82.66
X100.35Y-84.44
X100.35Y-86.22
X100.35Y-88.0
X100.35Y-89.78
X100.35Y-91.56
X100.35Y-93.34
T3
X87.0Y-81.2
X87.38Y-99.6
X89.92Y-99.6
X92.46Y-99.6
X95.0Y-99.6
X97.54Y-99.6
X100.08Y-99.6
X102.62Y-99.6
M30
