%TF.GenerationSoftware,KiCad,Pcbnew,9.0.5*%
%TF.CreationDate,2025-11-21T21:53:36+01:00*%
%TF.ProjectId,keyballTrackballPCB,6b657962-616c-46c5-9472-61636b62616c,1.0*%
%TF.SameCoordinates,Original*%
%TF.FileFunction,Soldermask,Top*%
%TF.FilePolarity,Negative*%
%FSLAX46Y46*%
G04 Gerber Fmt 4.6, Leading zero omitted, Abs format (unit mm)*
G04 Created by KiCad (PCBNEW 9.0.5) date 2025-11-21 21:53:36*
%MOMM*%
%LPD*%
G01*
G04 APERTURE LIST*
G04 Aperture macros list*
%AMRoundRect*
0 Rectangle with rounded corners*
0 $1 Rounding radius*
0 $2 $3 $4 $5 $6 $7 $8 $9 X,Y pos of 4 corners*
0 Add a 4 corners polygon primitive as box body*
4,1,4,$2,$3,$4,$5,$6,$7,$8,$9,$2,$3,0*
0 Add four circle primitives for the rounded corners*
1,1,$1+$1,$2,$3*
1,1,$1+$1,$4,$5*
1,1,$1+$1,$6,$7*
1,1,$1+$1,$8,$9*
0 Add four rect primitives between the rounded corners*
20,1,$1+$1,$2,$3,$4,$5,0*
20,1,$1+$1,$4,$5,$6,$7,0*
20,1,$1+$1,$6,$7,$8,$9,0*
20,1,$1+$1,$8,$9,$2,$3,0*%
G04 Aperture macros list end*
%ADD10RoundRect,0.237500X-0.237500X0.300000X-0.237500X-0.300000X0.237500X-0.300000X0.237500X0.300000X0*%
%ADD11RoundRect,0.237500X-0.300000X-0.237500X0.300000X-0.237500X0.300000X0.237500X-0.300000X0.237500X0*%
%ADD12RoundRect,0.237500X0.237500X-0.250000X0.237500X0.250000X-0.237500X0.250000X-0.237500X-0.250000X0*%
%ADD13RoundRect,0.237500X-0.237500X0.250000X-0.237500X-0.250000X0.237500X-0.250000X0.237500X0.250000X0*%
%ADD14RoundRect,0.087500X0.537500X0.087500X-0.537500X0.087500X-0.537500X-0.087500X0.537500X-0.087500X0*%
%ADD15RoundRect,0.237500X-0.250000X-0.237500X0.250000X-0.237500X0.250000X0.237500X-0.250000X0.237500X0*%
%ADD16RoundRect,0.150000X-0.512500X-0.150000X0.512500X-0.150000X0.512500X0.150000X-0.512500X0.150000X0*%
%ADD17R,1.700000X1.700000*%
%ADD18R,1.400000X1.400000*%
%ADD19C,1.400000*%
%ADD20C,1.700000*%
G04 APERTURE END LIST*
D10*
%TO.C,C5*%
X104000000Y-81075000D03*
X104000000Y-82800000D03*
%TD*%
D11*
%TO.C,C1*%
X90275000Y-97600000D03*
X92000000Y-97600000D03*
%TD*%
D12*
%TO.C,R9*%
X86000000Y-87000000D03*
X86000000Y-85175000D03*
%TD*%
D10*
%TO.C,C4*%
X105200000Y-85600000D03*
X105200000Y-87325000D03*
%TD*%
D13*
%TO.C,R10*%
X86000000Y-93575000D03*
X86000000Y-95400000D03*
%TD*%
%TO.C,R11*%
X104000000Y-93575000D03*
X104000000Y-95400000D03*
%TD*%
D12*
%TO.C,R8*%
X86000000Y-91225000D03*
X86000000Y-89400000D03*
%TD*%
D10*
%TO.C,C7*%
X105000000Y-101875000D03*
X105000000Y-103600000D03*
%TD*%
D14*
%TO.C,U2*%
X89400000Y-103550000D03*
X89400000Y-103050000D03*
X89400000Y-102550000D03*
X89400000Y-102050000D03*
X86600000Y-102050000D03*
X86600000Y-102550000D03*
X86600000Y-103050000D03*
X86600000Y-103550000D03*
%TD*%
%TO.C,U3*%
X103000000Y-103950000D03*
X103000000Y-103450000D03*
X103000000Y-102950000D03*
X103000000Y-102450000D03*
X100200000Y-102450000D03*
X100200000Y-102950000D03*
X100200000Y-103450000D03*
X100200000Y-103950000D03*
%TD*%
D10*
%TO.C,C6*%
X102600000Y-84600000D03*
X102600000Y-86325000D03*
%TD*%
D12*
%TO.C,R2*%
X98000000Y-104000000D03*
X98000000Y-102175000D03*
%TD*%
D15*
%TO.C,R4*%
X86575000Y-97600000D03*
X88400000Y-97600000D03*
%TD*%
D12*
%TO.C,R7*%
X85000000Y-83025000D03*
X85000000Y-81200000D03*
%TD*%
D13*
%TO.C,R5*%
X102200000Y-93575000D03*
X102200000Y-95400000D03*
%TD*%
%TO.C,R3*%
X84800000Y-97600000D03*
X84800000Y-99425000D03*
%TD*%
D10*
%TO.C,C3*%
X104000000Y-89200000D03*
X104000000Y-90925000D03*
%TD*%
D16*
%TO.C,U1*%
X93925000Y-102100000D03*
X93925000Y-103050000D03*
X93925000Y-104000000D03*
X96200000Y-104000000D03*
X96200000Y-102100000D03*
%TD*%
D15*
%TO.C,R6*%
X99200000Y-97600000D03*
X101025000Y-97600000D03*
%TD*%
D13*
%TO.C,R1*%
X104800000Y-97600000D03*
X104800000Y-99425000D03*
%TD*%
D11*
%TO.C,C2*%
X94275000Y-97600000D03*
X96000000Y-97600000D03*
%TD*%
D17*
%TO.C,J2*%
X87000000Y-81200000D03*
%TD*%
D18*
%TO.C,U4*%
X100350000Y-80880000D03*
D19*
X100350000Y-82660000D03*
X100350000Y-84440000D03*
X100350000Y-86220000D03*
X100350000Y-88000000D03*
X100350000Y-89780000D03*
X100350000Y-91560000D03*
X100350000Y-93340000D03*
X89650000Y-94230000D03*
X89650000Y-92450000D03*
X89650000Y-90670000D03*
X89650000Y-88890000D03*
X89650000Y-87110000D03*
X89650000Y-85330000D03*
X89650000Y-83550000D03*
X89650000Y-81770000D03*
%TD*%
D17*
%TO.C,J1*%
X87380000Y-99600000D03*
D20*
X89920000Y-99600000D03*
X92460000Y-99600000D03*
X95000000Y-99600000D03*
X97540000Y-99600000D03*
X100080000Y-99600000D03*
X102620000Y-99600000D03*
%TD*%
M02*
