%TF.GenerationSoftware,KiCad,Pcbnew,9.0.5*%
%TF.CreationDate,2025-11-21T21:53:36+01:00*%
%TF.ProjectId,keyballTrackballPCB,6b657962-616c-46c5-9472-61636b62616c,1.0*%
%TF.SameCoordinates,Original*%
%TF.FileFunction,Legend,Bot*%
%TF.FilePolarity,Positive*%
%FSLAX46Y46*%
G04 Gerber Fmt 4.6, Leading zero omitted, Abs format (unit mm)*
G04 Created by KiCad (PCBNEW 9.0.5) date 2025-11-21 21:53:36*
%MOMM*%
%LPD*%
G01*
G04 APERTURE LIST*
%ADD10C,0.100000*%
G04 APERTURE END LIST*
D10*
G36*
X104027433Y-104330000D02*
G01*
X103827948Y-104330000D01*
X103827948Y-104099373D01*
X104032318Y-103804328D01*
X103827948Y-103537065D01*
X103827948Y-103306133D01*
X104013450Y-103306133D01*
X104013450Y-103505497D01*
X104182161Y-103739909D01*
X104307458Y-103739909D01*
X104307458Y-103306133D01*
X104494303Y-103306133D01*
X104494303Y-104330000D01*
X104307458Y-104330000D01*
X104307458Y-103891828D01*
X104197548Y-103891828D01*
X104027433Y-104149870D01*
X104027433Y-104330000D01*
G37*
G36*
X103632370Y-103841209D02*
G01*
X103632370Y-104081238D01*
X103408400Y-104330000D01*
X103010101Y-104330000D01*
X102991905Y-104190048D01*
X103322976Y-104190048D01*
X103462988Y-104047777D01*
X103462988Y-104001737D01*
X103044417Y-104001737D01*
X102961069Y-103920587D01*
X102961069Y-103768058D01*
X103109508Y-103768058D01*
X103109508Y-103843346D01*
X103154998Y-103890484D01*
X103462988Y-103890484D01*
X103462988Y-103884134D01*
X103339096Y-103722323D01*
X103157807Y-103722323D01*
X103109508Y-103768058D01*
X102961069Y-103768058D01*
X102961069Y-103733620D01*
X103094059Y-103591409D01*
X103419574Y-103591409D01*
X103632370Y-103841209D01*
G37*
G36*
X102672435Y-104611367D02*
G01*
X102284638Y-104611367D01*
X102100540Y-104395029D01*
X102100540Y-103591409D01*
X102279021Y-103591409D01*
X102279021Y-104052112D01*
X102502320Y-104096992D01*
X102589148Y-104015659D01*
X102589148Y-103591409D01*
X102769705Y-103591409D01*
X102769705Y-104057058D01*
X102566739Y-104255444D01*
X102279021Y-104167090D01*
X102279021Y-104339586D01*
X102379160Y-104452487D01*
X102700401Y-104452487D01*
X102672435Y-104611367D01*
G37*
G36*
X101898002Y-103290502D02*
G01*
X101898002Y-104330000D01*
X101448595Y-104330000D01*
X101216870Y-104110303D01*
X101216870Y-103822768D01*
X101397487Y-103822768D01*
X101397487Y-104052906D01*
X101527669Y-104185102D01*
X101724406Y-104185102D01*
X101724406Y-103791994D01*
X101489200Y-103744427D01*
X101397487Y-103822768D01*
X101216870Y-103822768D01*
X101216870Y-103776606D01*
X101431803Y-103575778D01*
X101715308Y-103666025D01*
X101715308Y-103259239D01*
X101898002Y-103290502D01*
G37*
G36*
X100969513Y-103732826D02*
G01*
X100600645Y-103732826D01*
X100536959Y-103793215D01*
X100536959Y-103893660D01*
X100888302Y-103893660D01*
X101060554Y-104014071D01*
X101060554Y-104191636D01*
X100872243Y-104345631D01*
X100521510Y-104251231D01*
X100490736Y-104330000D01*
X100358417Y-104330000D01*
X100358417Y-104149809D01*
X100536959Y-104149809D01*
X100805015Y-104212763D01*
X100897400Y-104122515D01*
X100897400Y-104060233D01*
X100818326Y-104005645D01*
X100536959Y-104005645D01*
X100536959Y-104149809D01*
X100358417Y-104149809D01*
X100358417Y-103753892D01*
X100512412Y-103591409D01*
X100951317Y-103591409D01*
X100969513Y-103732826D01*
G37*
G36*
X99792568Y-104330000D02*
G01*
X99497156Y-104330000D01*
X99478288Y-104166235D01*
X99700183Y-104166235D01*
X99798185Y-104053700D01*
X99798185Y-103374766D01*
X99898996Y-103259239D01*
X100196484Y-103259239D01*
X100215352Y-103422393D01*
X99976666Y-103422393D01*
X99976666Y-104113784D01*
X99792568Y-104330000D01*
G37*
G36*
X98925017Y-104330000D02*
G01*
X98629605Y-104330000D01*
X98610737Y-104166235D01*
X98832632Y-104166235D01*
X98930635Y-104053700D01*
X98930635Y-103374766D01*
X99031446Y-103259239D01*
X99328934Y-103259239D01*
X99347801Y-103422393D01*
X99109115Y-103422393D01*
X99109115Y-104113784D01*
X98925017Y-104330000D01*
G37*
G36*
X97336217Y-104330000D02*
G01*
X97152852Y-104330000D01*
X97152852Y-103458053D01*
X96853960Y-103458053D01*
X96867210Y-103306133D01*
X97621127Y-103306133D01*
X97633705Y-103458053D01*
X97336217Y-103458053D01*
X97336217Y-104330000D01*
G37*
G36*
X96198473Y-103916557D02*
G01*
X96017855Y-103890668D01*
X96018588Y-103752854D01*
X96207571Y-103575778D01*
X96514890Y-103686359D01*
X96553358Y-103591409D01*
X96688485Y-103591409D01*
X96688485Y-104330000D01*
X96507868Y-104330000D01*
X96507868Y-103783934D01*
X96269181Y-103736306D01*
X96198473Y-103808419D01*
X96198473Y-103916557D01*
G37*
G36*
X95764209Y-103732826D02*
G01*
X95395341Y-103732826D01*
X95331655Y-103793215D01*
X95331655Y-103893660D01*
X95682998Y-103893660D01*
X95855251Y-104014071D01*
X95855251Y-104191636D01*
X95666939Y-104345631D01*
X95316207Y-104251231D01*
X95285432Y-104330000D01*
X95153114Y-104330000D01*
X95153114Y-104149809D01*
X95331655Y-104149809D01*
X95599712Y-104212763D01*
X95692096Y-104122515D01*
X95692096Y-104060233D01*
X95613023Y-104005645D01*
X95331655Y-104005645D01*
X95331655Y-104149809D01*
X95153114Y-104149809D01*
X95153114Y-103753892D01*
X95307109Y-103591409D01*
X95746013Y-103591409D01*
X95764209Y-103732826D01*
G37*
G36*
X94748953Y-104330000D02*
G01*
X94317070Y-104330000D01*
X94291852Y-104176004D01*
X94677573Y-104176004D01*
X94803602Y-104034588D01*
X94803602Y-103886882D01*
X94677573Y-103745465D01*
X94291852Y-103745465D01*
X94317070Y-103591409D01*
X94748953Y-103591409D01*
X94972984Y-103840659D01*
X94972984Y-104080811D01*
X94748953Y-104330000D01*
G37*
G36*
X93599302Y-104330000D02*
G01*
X93404762Y-104330000D01*
X93404762Y-104181683D01*
X93651142Y-103922114D01*
X93381620Y-103591409D01*
X93573412Y-103591409D01*
X93792498Y-103867465D01*
X93901003Y-103867465D01*
X93901003Y-103259239D01*
X94083025Y-103290502D01*
X94083025Y-104330000D01*
X93901003Y-104330000D01*
X93901003Y-104009553D01*
X93797444Y-104009553D01*
X93599302Y-104213190D01*
X93599302Y-104330000D01*
G37*
G36*
X93222496Y-103290502D02*
G01*
X93222496Y-104330000D01*
X92773089Y-104330000D01*
X92541364Y-104110303D01*
X92541364Y-103822768D01*
X92721981Y-103822768D01*
X92721981Y-104052906D01*
X92852163Y-104185102D01*
X93048900Y-104185102D01*
X93048900Y-103791994D01*
X92813695Y-103744427D01*
X92721981Y-103822768D01*
X92541364Y-103822768D01*
X92541364Y-103776606D01*
X92756297Y-103575778D01*
X93039802Y-103666025D01*
X93039802Y-103259239D01*
X93222496Y-103290502D01*
G37*
G36*
X92294007Y-103732826D02*
G01*
X91925139Y-103732826D01*
X91861453Y-103793215D01*
X91861453Y-103893660D01*
X92212796Y-103893660D01*
X92385048Y-104014071D01*
X92385048Y-104191636D01*
X92196737Y-104345631D01*
X91846004Y-104251231D01*
X91815230Y-104330000D01*
X91682911Y-104330000D01*
X91682911Y-104149809D01*
X91861453Y-104149809D01*
X92129509Y-104212763D01*
X92221894Y-104122515D01*
X92221894Y-104060233D01*
X92142821Y-104005645D01*
X91861453Y-104005645D01*
X91861453Y-104149809D01*
X91682911Y-104149809D01*
X91682911Y-103753892D01*
X91836906Y-103591409D01*
X92275811Y-103591409D01*
X92294007Y-103732826D01*
G37*
G36*
X91117062Y-104330000D02*
G01*
X90821650Y-104330000D01*
X90802782Y-104166235D01*
X91024677Y-104166235D01*
X91122679Y-104053700D01*
X91122679Y-103374766D01*
X91223490Y-103259239D01*
X91520978Y-103259239D01*
X91539846Y-103422393D01*
X91301160Y-103422393D01*
X91301160Y-104113784D01*
X91117062Y-104330000D01*
G37*
G36*
X90249511Y-104330000D02*
G01*
X89954099Y-104330000D01*
X89935232Y-104166235D01*
X90157126Y-104166235D01*
X90255129Y-104053700D01*
X90255129Y-103374766D01*
X90355940Y-103259239D01*
X90653428Y-103259239D01*
X90672295Y-103422393D01*
X90433609Y-103422393D01*
X90433609Y-104113784D01*
X90249511Y-104330000D01*
G37*
G36*
X88641844Y-104330000D02*
G01*
X88458417Y-104330000D01*
X88223211Y-103904345D01*
X88223211Y-103591409D01*
X88401753Y-103591409D01*
X88401753Y-103872838D01*
X88548726Y-104177409D01*
X88695699Y-103872166D01*
X88695699Y-103591409D01*
X88877049Y-103591409D01*
X88877049Y-103904345D01*
X88641844Y-104330000D01*
G37*
G36*
X88008094Y-104330000D02*
G01*
X87340273Y-104330000D01*
X87340273Y-104178142D01*
X87580364Y-104178142D01*
X87580364Y-103306133D01*
X87725994Y-103306133D01*
X87991242Y-103388260D01*
X87991242Y-103550315D01*
X87763790Y-103482233D01*
X87763790Y-104178142D01*
X88008094Y-104178142D01*
X88008094Y-104330000D01*
G37*
G36*
X86945943Y-104330000D02*
G01*
X86689000Y-104330000D01*
X86689000Y-104073117D01*
X86945943Y-104073117D01*
X86945943Y-104330000D01*
G37*
G36*
X86020935Y-103904040D02*
G01*
X85883060Y-103904040D01*
X85883060Y-103729101D01*
X86020935Y-103729101D01*
X86020935Y-103904040D01*
G37*
G36*
X86322636Y-103676528D02*
G01*
X86322636Y-103956247D01*
X86063677Y-104330000D01*
X85841782Y-104330000D01*
X85582091Y-103956247D01*
X85582091Y-103736795D01*
X85763381Y-103736795D01*
X85763381Y-103895675D01*
X85924337Y-104159213D01*
X85980329Y-104159213D01*
X86141346Y-103895675D01*
X86141346Y-103736795D01*
X85978253Y-103476981D01*
X85922932Y-103476981D01*
X85763381Y-103736795D01*
X85582091Y-103736795D01*
X85582091Y-103676528D01*
X85836837Y-103306133D01*
X86063677Y-103306133D01*
X86322636Y-103676528D01*
G37*
G36*
X88834091Y-85598000D02*
G01*
X88731179Y-85598000D01*
X88731179Y-85207125D01*
X88726123Y-85207125D01*
X88521618Y-85598000D01*
X88445158Y-85598000D01*
X88445158Y-84983680D01*
X88548070Y-84983680D01*
X88548070Y-85372905D01*
X88553089Y-85372905D01*
X88754699Y-84983680D01*
X88834091Y-84983680D01*
X88834091Y-85598000D01*
G37*
G36*
X88191341Y-85598000D02*
G01*
X87926716Y-85598000D01*
X87912868Y-85498495D01*
X88133785Y-85498495D01*
X88232484Y-85338027D01*
X88232484Y-85242443D01*
X88133785Y-85083221D01*
X87912868Y-85083221D01*
X87926716Y-84983680D01*
X88191341Y-84983680D01*
X88341257Y-85205770D01*
X88341257Y-85374664D01*
X88191341Y-85598000D01*
G37*
G36*
X102506413Y-93698000D02*
G01*
X102303117Y-93698000D01*
X102223323Y-93612747D01*
X102223323Y-93358856D01*
X102416104Y-93358856D01*
X102416104Y-93442424D01*
X102314474Y-93442424D01*
X102314474Y-93565669D01*
X102348473Y-93598495D01*
X102449296Y-93598495D01*
X102553014Y-93438247D01*
X102553014Y-93342809D01*
X102455158Y-93183221D01*
X102250214Y-93183221D01*
X102261132Y-93083680D01*
X102511871Y-93083680D01*
X102661788Y-93306503D01*
X102661788Y-93474407D01*
X102506413Y-93698000D01*
G37*
G36*
X102113560Y-93698000D02*
G01*
X102010648Y-93698000D01*
X102010648Y-93307125D01*
X102005593Y-93307125D01*
X101801088Y-93698000D01*
X101724628Y-93698000D01*
X101724628Y-93083680D01*
X101827540Y-93083680D01*
X101827540Y-93472905D01*
X101832559Y-93472905D01*
X102034169Y-93083680D01*
X102113560Y-93083680D01*
X102113560Y-93698000D01*
G37*
G36*
X101593030Y-93698000D02*
G01*
X101326317Y-93698000D01*
X101176400Y-93471293D01*
X101176400Y-93339072D01*
X101285174Y-93339072D01*
X101285174Y-93435060D01*
X101383030Y-93598495D01*
X101483414Y-93598495D01*
X101483414Y-93183221D01*
X101383030Y-93183221D01*
X101285174Y-93339072D01*
X101176400Y-93339072D01*
X101176400Y-93302839D01*
X101326317Y-93083680D01*
X101593030Y-93083680D01*
X101593030Y-93698000D01*
G37*
G36*
X102134091Y-90098000D02*
G01*
X102031179Y-90098000D01*
X102031179Y-89707125D01*
X102026123Y-89707125D01*
X101821618Y-90098000D01*
X101745158Y-90098000D01*
X101745158Y-89483680D01*
X101848070Y-89483680D01*
X101848070Y-89872905D01*
X101853089Y-89872905D01*
X102054699Y-89483680D01*
X102134091Y-89483680D01*
X102134091Y-90098000D01*
G37*
G36*
X101491341Y-90098000D02*
G01*
X101226716Y-90098000D01*
X101212868Y-89998495D01*
X101433785Y-89998495D01*
X101532484Y-89838027D01*
X101532484Y-89742443D01*
X101433785Y-89583221D01*
X101212868Y-89583221D01*
X101226716Y-89483680D01*
X101491341Y-89483680D01*
X101641257Y-89705770D01*
X101641257Y-89874664D01*
X101491341Y-90098000D01*
G37*
G36*
X90134091Y-80898000D02*
G01*
X90031179Y-80898000D01*
X90031179Y-80507125D01*
X90026123Y-80507125D01*
X89821618Y-80898000D01*
X89745158Y-80898000D01*
X89745158Y-80283680D01*
X89848070Y-80283680D01*
X89848070Y-80672905D01*
X89853089Y-80672905D01*
X90054699Y-80283680D01*
X90134091Y-80283680D01*
X90134091Y-80898000D01*
G37*
G36*
X89491341Y-80898000D02*
G01*
X89226716Y-80898000D01*
X89212868Y-80798495D01*
X89433785Y-80798495D01*
X89532484Y-80638027D01*
X89532484Y-80542443D01*
X89433785Y-80383221D01*
X89212868Y-80383221D01*
X89226716Y-80283680D01*
X89491341Y-80283680D01*
X89641257Y-80505770D01*
X89641257Y-80674664D01*
X89491341Y-80898000D01*
G37*
G36*
X98106413Y-98498000D02*
G01*
X97903117Y-98498000D01*
X97823323Y-98412747D01*
X97823323Y-98158856D01*
X98016104Y-98158856D01*
X98016104Y-98242424D01*
X97914474Y-98242424D01*
X97914474Y-98365669D01*
X97948473Y-98398495D01*
X98049296Y-98398495D01*
X98153014Y-98238247D01*
X98153014Y-98142809D01*
X98055158Y-97983221D01*
X97850214Y-97983221D01*
X97861132Y-97883680D01*
X98111871Y-97883680D01*
X98261788Y-98106503D01*
X98261788Y-98274407D01*
X98106413Y-98498000D01*
G37*
G36*
X97713560Y-98498000D02*
G01*
X97610648Y-98498000D01*
X97610648Y-98107125D01*
X97605593Y-98107125D01*
X97401088Y-98498000D01*
X97324628Y-98498000D01*
X97324628Y-97883680D01*
X97427540Y-97883680D01*
X97427540Y-98272905D01*
X97432559Y-98272905D01*
X97634169Y-97883680D01*
X97713560Y-97883680D01*
X97713560Y-98498000D01*
G37*
G36*
X97193030Y-98498000D02*
G01*
X96926317Y-98498000D01*
X96776400Y-98271293D01*
X96776400Y-98139072D01*
X96885174Y-98139072D01*
X96885174Y-98235060D01*
X96983030Y-98398495D01*
X97083414Y-98398495D01*
X97083414Y-97983221D01*
X96983030Y-97983221D01*
X96885174Y-98139072D01*
X96776400Y-98139072D01*
X96776400Y-98102839D01*
X96926317Y-97883680D01*
X97193030Y-97883680D01*
X97193030Y-98498000D01*
G37*
G36*
X88834091Y-87398000D02*
G01*
X88731179Y-87398000D01*
X88731179Y-87007125D01*
X88726123Y-87007125D01*
X88521618Y-87398000D01*
X88445158Y-87398000D01*
X88445158Y-86783680D01*
X88548070Y-86783680D01*
X88548070Y-87172905D01*
X88553089Y-87172905D01*
X88754699Y-86783680D01*
X88834091Y-86783680D01*
X88834091Y-87398000D01*
G37*
G36*
X88191341Y-87398000D02*
G01*
X87926716Y-87398000D01*
X87912868Y-87298495D01*
X88133785Y-87298495D01*
X88232484Y-87138027D01*
X88232484Y-87042443D01*
X88133785Y-86883221D01*
X87912868Y-86883221D01*
X87926716Y-86783680D01*
X88191341Y-86783680D01*
X88341257Y-87005770D01*
X88341257Y-87174664D01*
X88191341Y-87398000D01*
G37*
G36*
X87791345Y-87398000D02*
G01*
X87505727Y-87398000D01*
X87398639Y-87270248D01*
X87398639Y-87180123D01*
X87677955Y-86967448D01*
X87677955Y-86937993D01*
X87635530Y-86881572D01*
X87405783Y-86881572D01*
X87416700Y-86783680D01*
X87691364Y-86783680D01*
X87798489Y-86911431D01*
X87798489Y-87001557D01*
X87519173Y-87214231D01*
X87519173Y-87243724D01*
X87561598Y-87300144D01*
X87802665Y-87300144D01*
X87791345Y-87398000D01*
G37*
G36*
X103506816Y-88298000D02*
G01*
X103372433Y-88298000D01*
X103243913Y-87995896D01*
X103243913Y-87683680D01*
X103353089Y-87683680D01*
X103353089Y-87960138D01*
X103439624Y-88197469D01*
X103526123Y-87959699D01*
X103526123Y-87683680D01*
X103635336Y-87683680D01*
X103635336Y-87995896D01*
X103506816Y-88298000D01*
G37*
G36*
X103113560Y-88298000D02*
G01*
X102846847Y-88298000D01*
X102696931Y-88071293D01*
X102696931Y-87939072D01*
X102805704Y-87939072D01*
X102805704Y-88035060D01*
X102903560Y-88198495D01*
X103003944Y-88198495D01*
X103003944Y-87783221D01*
X102903560Y-87783221D01*
X102805704Y-87939072D01*
X102696931Y-87939072D01*
X102696931Y-87902839D01*
X102846847Y-87683680D01*
X103113560Y-87683680D01*
X103113560Y-88298000D01*
G37*
G36*
X102593030Y-88298000D02*
G01*
X102326317Y-88298000D01*
X102176400Y-88071293D01*
X102176400Y-87939072D01*
X102285174Y-87939072D01*
X102285174Y-88035060D01*
X102383030Y-88198495D01*
X102483414Y-88198495D01*
X102483414Y-87783221D01*
X102383030Y-87783221D01*
X102285174Y-87939072D01*
X102176400Y-87939072D01*
X102176400Y-87902839D01*
X102326317Y-87683680D01*
X102593030Y-87683680D01*
X102593030Y-88298000D01*
G37*
G36*
X102068286Y-88298000D02*
G01*
X101687780Y-88298000D01*
X101679354Y-88206885D01*
X101824288Y-88206885D01*
X101824288Y-87774831D01*
X101679354Y-87774831D01*
X101687780Y-87683680D01*
X102068286Y-87683680D01*
X102076676Y-87774831D01*
X101934307Y-87774831D01*
X101934307Y-88206885D01*
X102076676Y-88206885D01*
X102068286Y-88298000D01*
G37*
G36*
X101579666Y-87906210D02*
G01*
X101579666Y-88074261D01*
X101424291Y-88298000D01*
X101291154Y-88298000D01*
X101135340Y-88074261D01*
X101135340Y-87942443D01*
X101244113Y-87942443D01*
X101244113Y-88038027D01*
X101340687Y-88195527D01*
X101374282Y-88195527D01*
X101470893Y-88038027D01*
X101470893Y-87942443D01*
X101373037Y-87786189D01*
X101339844Y-87786189D01*
X101244113Y-87942443D01*
X101135340Y-87942443D01*
X101135340Y-87906210D01*
X101288187Y-87683680D01*
X101424291Y-87683680D01*
X101579666Y-87906210D01*
G37*
G36*
X102506816Y-86498000D02*
G01*
X102372433Y-86498000D01*
X102243913Y-86195896D01*
X102243913Y-85883680D01*
X102353089Y-85883680D01*
X102353089Y-86160138D01*
X102439624Y-86397469D01*
X102526123Y-86159699D01*
X102526123Y-85883680D01*
X102635336Y-85883680D01*
X102635336Y-86195896D01*
X102506816Y-86498000D01*
G37*
G36*
X102113560Y-86498000D02*
G01*
X101846847Y-86498000D01*
X101696931Y-86271293D01*
X101696931Y-86139072D01*
X101805704Y-86139072D01*
X101805704Y-86235060D01*
X101903560Y-86398495D01*
X102003944Y-86398495D01*
X102003944Y-85983221D01*
X101903560Y-85983221D01*
X101805704Y-86139072D01*
X101696931Y-86139072D01*
X101696931Y-86102839D01*
X101846847Y-85883680D01*
X102113560Y-85883680D01*
X102113560Y-86498000D01*
G37*
G36*
X101593030Y-86498000D02*
G01*
X101326317Y-86498000D01*
X101176400Y-86271293D01*
X101176400Y-86139072D01*
X101285174Y-86139072D01*
X101285174Y-86235060D01*
X101383030Y-86398495D01*
X101483414Y-86398495D01*
X101483414Y-85983221D01*
X101383030Y-85983221D01*
X101285174Y-86139072D01*
X101176400Y-86139072D01*
X101176400Y-86102839D01*
X101326317Y-85883680D01*
X101593030Y-85883680D01*
X101593030Y-86498000D01*
G37*
G36*
X88832405Y-92698000D02*
G01*
X88546788Y-92698000D01*
X88439699Y-92570248D01*
X88439699Y-92480123D01*
X88719016Y-92267448D01*
X88719016Y-92237993D01*
X88676591Y-92181572D01*
X88446844Y-92181572D01*
X88457761Y-92083680D01*
X88732424Y-92083680D01*
X88839549Y-92211431D01*
X88839549Y-92301557D01*
X88560233Y-92514231D01*
X88560233Y-92543724D01*
X88602658Y-92600144D01*
X88843726Y-92600144D01*
X88832405Y-92698000D01*
G37*
G36*
X88191341Y-92698000D02*
G01*
X87926716Y-92698000D01*
X87912868Y-92598495D01*
X88133785Y-92598495D01*
X88232484Y-92438027D01*
X88232484Y-92342443D01*
X88133785Y-92183221D01*
X87912868Y-92183221D01*
X87926716Y-92083680D01*
X88191341Y-92083680D01*
X88341257Y-92305770D01*
X88341257Y-92474664D01*
X88191341Y-92698000D01*
G37*
G36*
X87781673Y-92698000D02*
G01*
X87402412Y-92698000D01*
X87391092Y-92606885D01*
X87671653Y-92606885D01*
X87671653Y-92083680D01*
X87781673Y-92083680D01*
X87781673Y-92698000D01*
G37*
G36*
X86994869Y-92698000D02*
G01*
X86875177Y-92698000D01*
X86875177Y-92559624D01*
X86997800Y-92382596D01*
X86875177Y-92222239D01*
X86875177Y-92083680D01*
X86986479Y-92083680D01*
X86986479Y-92203298D01*
X87087705Y-92343945D01*
X87162883Y-92343945D01*
X87162883Y-92083680D01*
X87274991Y-92083680D01*
X87274991Y-92698000D01*
X87162883Y-92698000D01*
X87162883Y-92435096D01*
X87096938Y-92435096D01*
X86994869Y-92589922D01*
X86994869Y-92698000D01*
G37*
G36*
X88822733Y-83898000D02*
G01*
X88443473Y-83898000D01*
X88432152Y-83806885D01*
X88712714Y-83806885D01*
X88712714Y-83283680D01*
X88822733Y-83283680D01*
X88822733Y-83898000D01*
G37*
G36*
X88309347Y-83898000D02*
G01*
X87933860Y-83898000D01*
X87922943Y-83806885D01*
X88199731Y-83806885D01*
X88199731Y-83632825D01*
X87988888Y-83632825D01*
X87988888Y-83546290D01*
X88199731Y-83546290D01*
X88199731Y-83374831D01*
X87936828Y-83374831D01*
X87948148Y-83283680D01*
X88309347Y-83283680D01*
X88309347Y-83898000D01*
G37*
G36*
X87793030Y-83898000D02*
G01*
X87526317Y-83898000D01*
X87376400Y-83671293D01*
X87376400Y-83539072D01*
X87485174Y-83539072D01*
X87485174Y-83635060D01*
X87583030Y-83798495D01*
X87683414Y-83798495D01*
X87683414Y-83383221D01*
X87583030Y-83383221D01*
X87485174Y-83539072D01*
X87376400Y-83539072D01*
X87376400Y-83502839D01*
X87526317Y-83283680D01*
X87793030Y-83283680D01*
X87793030Y-83898000D01*
G37*
G36*
X87300636Y-84048758D02*
G01*
X86855430Y-84048758D01*
X86855430Y-83994133D01*
X87300636Y-83994133D01*
X87300636Y-84048758D01*
G37*
G36*
X86751969Y-83898000D02*
G01*
X86639825Y-83898000D01*
X86639825Y-83684043D01*
X86474778Y-83684043D01*
X86338271Y-83547206D01*
X86338271Y-83447921D01*
X86447044Y-83447921D01*
X86447044Y-83510020D01*
X86525153Y-83602563D01*
X86639825Y-83602563D01*
X86639825Y-83381975D01*
X86523907Y-83381975D01*
X86447044Y-83447921D01*
X86338271Y-83447921D01*
X86338271Y-83410295D01*
X86476427Y-83283680D01*
X86751969Y-83283680D01*
X86751969Y-83898000D01*
G37*
G36*
X103134933Y-81198000D02*
G01*
X102734241Y-81198000D01*
X102734241Y-81106885D01*
X102878295Y-81106885D01*
X102878295Y-80583680D01*
X102965673Y-80583680D01*
X103124822Y-80632956D01*
X103124822Y-80730189D01*
X102988351Y-80689339D01*
X102988351Y-81106885D01*
X103134933Y-81106885D01*
X103134933Y-81198000D01*
G37*
G36*
X102505190Y-81280908D02*
G01*
X102237231Y-80583680D01*
X102351060Y-80583680D01*
X102619422Y-81280908D01*
X102505190Y-81280908D01*
G37*
G36*
X102093030Y-81198000D02*
G01*
X101990118Y-81198000D01*
X101990118Y-80807125D01*
X101985062Y-80807125D01*
X101780558Y-81198000D01*
X101704098Y-81198000D01*
X101704098Y-80583680D01*
X101807009Y-80583680D01*
X101807009Y-80972905D01*
X101812028Y-80972905D01*
X102013639Y-80583680D01*
X102093030Y-80583680D01*
X102093030Y-81198000D01*
G37*
G36*
X101450280Y-81198000D02*
G01*
X101185655Y-81198000D01*
X101171807Y-81098495D01*
X101392725Y-81098495D01*
X101491423Y-80938027D01*
X101491423Y-80842443D01*
X101392725Y-80683221D01*
X101171807Y-80683221D01*
X101185655Y-80583680D01*
X101450280Y-80583680D01*
X101600197Y-80805770D01*
X101600197Y-80974664D01*
X101450280Y-81198000D01*
G37*
G36*
X90634091Y-98498000D02*
G01*
X90531179Y-98498000D01*
X90531179Y-98107125D01*
X90526123Y-98107125D01*
X90321618Y-98498000D01*
X90245158Y-98498000D01*
X90245158Y-97883680D01*
X90348070Y-97883680D01*
X90348070Y-98272905D01*
X90353089Y-98272905D01*
X90554699Y-97883680D01*
X90634091Y-97883680D01*
X90634091Y-98498000D01*
G37*
G36*
X89991341Y-98498000D02*
G01*
X89726716Y-98498000D01*
X89712868Y-98398495D01*
X89933785Y-98398495D01*
X90032484Y-98238027D01*
X90032484Y-98142443D01*
X89933785Y-97983221D01*
X89712868Y-97983221D01*
X89726716Y-97883680D01*
X89991341Y-97883680D01*
X90141257Y-98105770D01*
X90141257Y-98274664D01*
X89991341Y-98498000D01*
G37*
G36*
X89591345Y-98498000D02*
G01*
X89305727Y-98498000D01*
X89198639Y-98370248D01*
X89198639Y-98280123D01*
X89477955Y-98067448D01*
X89477955Y-98037993D01*
X89435530Y-97981572D01*
X89205783Y-97981572D01*
X89216700Y-97883680D01*
X89491364Y-97883680D01*
X89598489Y-98011431D01*
X89598489Y-98101557D01*
X89319173Y-98314231D01*
X89319173Y-98343724D01*
X89361598Y-98400144D01*
X89602665Y-98400144D01*
X89591345Y-98498000D01*
G37*
G36*
X100948782Y-98498000D02*
G01*
X100861404Y-98498000D01*
X100861404Y-98081040D01*
X100855945Y-98081040D01*
X100759774Y-98334345D01*
X100725336Y-98334345D01*
X100626235Y-98081040D01*
X100619494Y-98081040D01*
X100619494Y-98498000D01*
X100530467Y-98498000D01*
X100530467Y-97883680D01*
X100624549Y-97883680D01*
X100735851Y-98152555D01*
X100741713Y-98152555D01*
X100841693Y-97883680D01*
X100948782Y-97883680D01*
X100948782Y-98498000D01*
G37*
G36*
X100441257Y-98106210D02*
G01*
X100441257Y-98274261D01*
X100285882Y-98498000D01*
X100152745Y-98498000D01*
X99996931Y-98274261D01*
X99996931Y-98142443D01*
X100105704Y-98142443D01*
X100105704Y-98238027D01*
X100202278Y-98395527D01*
X100235874Y-98395527D01*
X100332484Y-98238027D01*
X100332484Y-98142443D01*
X100234628Y-97986189D01*
X100201435Y-97986189D01*
X100105704Y-98142443D01*
X99996931Y-98142443D01*
X99996931Y-98106210D01*
X100149778Y-97883680D01*
X100285882Y-97883680D01*
X100441257Y-98106210D01*
G37*
G36*
X99891345Y-98498000D02*
G01*
X99605727Y-98498000D01*
X99498639Y-98370248D01*
X99498639Y-98280123D01*
X99777955Y-98067448D01*
X99777955Y-98037993D01*
X99735530Y-97981572D01*
X99505783Y-97981572D01*
X99516700Y-97883680D01*
X99791364Y-97883680D01*
X99898489Y-98011431D01*
X99898489Y-98101557D01*
X99619173Y-98314231D01*
X99619173Y-98343724D01*
X99661598Y-98400144D01*
X99902665Y-98400144D01*
X99891345Y-98498000D01*
G37*
G36*
X99368286Y-98498000D02*
G01*
X98987780Y-98498000D01*
X98979354Y-98406885D01*
X99124288Y-98406885D01*
X99124288Y-97974831D01*
X98979354Y-97974831D01*
X98987780Y-97883680D01*
X99368286Y-97883680D01*
X99376676Y-97974831D01*
X99234307Y-97974831D01*
X99234307Y-98406885D01*
X99376676Y-98406885D01*
X99368286Y-98498000D01*
G37*
G36*
X95418557Y-98498000D02*
G01*
X95182911Y-98498000D01*
X95036329Y-98364277D01*
X95036329Y-98224985D01*
X95148473Y-98122000D01*
X95337480Y-98122000D01*
X95329933Y-97974831D01*
X95064063Y-97974831D01*
X95072452Y-97883680D01*
X95421488Y-97883680D01*
X95437021Y-98207253D01*
X95205186Y-98207253D01*
X95144296Y-98264259D01*
X95144296Y-98321668D01*
X95229952Y-98398495D01*
X95429474Y-98398495D01*
X95418557Y-98498000D01*
G37*
G36*
X94786285Y-98498000D02*
G01*
X94651903Y-98498000D01*
X94523382Y-98195896D01*
X94523382Y-97883680D01*
X94632559Y-97883680D01*
X94632559Y-98160138D01*
X94719094Y-98397469D01*
X94805593Y-98159699D01*
X94805593Y-97883680D01*
X94914806Y-97883680D01*
X94914806Y-98195896D01*
X94786285Y-98498000D01*
G37*
G36*
X104106816Y-84698000D02*
G01*
X103972433Y-84698000D01*
X103843913Y-84395896D01*
X103843913Y-84083680D01*
X103953089Y-84083680D01*
X103953089Y-84360138D01*
X104039624Y-84597469D01*
X104126123Y-84359699D01*
X104126123Y-84083680D01*
X104235336Y-84083680D01*
X104235336Y-84395896D01*
X104106816Y-84698000D01*
G37*
G36*
X103713560Y-84698000D02*
G01*
X103446847Y-84698000D01*
X103296931Y-84471293D01*
X103296931Y-84339072D01*
X103405704Y-84339072D01*
X103405704Y-84435060D01*
X103503560Y-84598495D01*
X103603944Y-84598495D01*
X103603944Y-84183221D01*
X103503560Y-84183221D01*
X103405704Y-84339072D01*
X103296931Y-84339072D01*
X103296931Y-84302839D01*
X103446847Y-84083680D01*
X103713560Y-84083680D01*
X103713560Y-84698000D01*
G37*
G36*
X103193030Y-84698000D02*
G01*
X102926317Y-84698000D01*
X102776400Y-84471293D01*
X102776400Y-84339072D01*
X102885174Y-84339072D01*
X102885174Y-84435060D01*
X102983030Y-84598495D01*
X103083414Y-84598495D01*
X103083414Y-84183221D01*
X102983030Y-84183221D01*
X102885174Y-84339072D01*
X102776400Y-84339072D01*
X102776400Y-84302839D01*
X102926317Y-84083680D01*
X103193030Y-84083680D01*
X103193030Y-84698000D01*
G37*
G36*
X102672500Y-84698000D02*
G01*
X102560355Y-84698000D01*
X102560355Y-84484043D01*
X102395308Y-84484043D01*
X102258801Y-84347206D01*
X102258801Y-84247921D01*
X102367575Y-84247921D01*
X102367575Y-84310020D01*
X102445683Y-84402563D01*
X102560355Y-84402563D01*
X102560355Y-84181975D01*
X102444438Y-84181975D01*
X102367575Y-84247921D01*
X102258801Y-84247921D01*
X102258801Y-84210295D01*
X102396957Y-84083680D01*
X102672500Y-84083680D01*
X102672500Y-84698000D01*
G37*
G36*
X102147756Y-84698000D02*
G01*
X101767250Y-84698000D01*
X101758824Y-84606885D01*
X101903757Y-84606885D01*
X101903757Y-84174831D01*
X101758824Y-84174831D01*
X101767250Y-84083680D01*
X102147756Y-84083680D01*
X102156146Y-84174831D01*
X102013777Y-84174831D01*
X102013777Y-84606885D01*
X102156146Y-84606885D01*
X102147756Y-84698000D01*
G37*
G36*
X101345418Y-84698000D02*
G01*
X101234117Y-84698000D01*
X101234117Y-84562115D01*
X101362198Y-84399669D01*
X101234117Y-84216633D01*
X101234117Y-84083680D01*
X101336186Y-84083680D01*
X101336186Y-84190145D01*
X101422684Y-84322696D01*
X101528527Y-84188460D01*
X101528527Y-84083680D01*
X101639829Y-84083680D01*
X101639829Y-84219601D01*
X101511711Y-84382010D01*
X101639829Y-84565046D01*
X101639829Y-84698000D01*
X101537759Y-84698000D01*
X101537759Y-84592413D01*
X101450821Y-84459020D01*
X101345418Y-84592413D01*
X101345418Y-84698000D01*
G37*
G36*
X88848782Y-89598000D02*
G01*
X88761404Y-89598000D01*
X88761404Y-89164627D01*
X88755945Y-89164627D01*
X88638782Y-89434345D01*
X88606871Y-89434345D01*
X88486741Y-89164627D01*
X88480036Y-89164627D01*
X88480036Y-89598000D01*
X88390973Y-89598000D01*
X88390973Y-88983680D01*
X88487986Y-88983680D01*
X88616104Y-89252152D01*
X88621966Y-89252152D01*
X88740008Y-88983680D01*
X88848782Y-88983680D01*
X88848782Y-89598000D01*
G37*
G36*
X88258093Y-89598000D02*
G01*
X87928841Y-89598000D01*
X87920415Y-89506885D01*
X88039703Y-89506885D01*
X88039703Y-89074831D01*
X87920415Y-89074831D01*
X87928841Y-88983680D01*
X88258093Y-88983680D01*
X88266519Y-89074831D01*
X88149759Y-89074831D01*
X88149759Y-89506885D01*
X88266519Y-89506885D01*
X88258093Y-89598000D01*
G37*
G36*
X87791345Y-89598000D02*
G01*
X87505727Y-89598000D01*
X87398639Y-89470248D01*
X87398639Y-89380123D01*
X87677955Y-89167448D01*
X87677955Y-89137993D01*
X87635530Y-89081572D01*
X87405783Y-89081572D01*
X87416700Y-88983680D01*
X87691364Y-88983680D01*
X87798489Y-89111431D01*
X87798489Y-89201557D01*
X87519173Y-89414231D01*
X87519173Y-89443724D01*
X87561598Y-89500144D01*
X87802665Y-89500144D01*
X87791345Y-89598000D01*
G37*
G36*
X87300197Y-89206210D02*
G01*
X87300197Y-89374261D01*
X87144822Y-89598000D01*
X87011685Y-89598000D01*
X86855870Y-89374261D01*
X86855870Y-89242443D01*
X86964644Y-89242443D01*
X86964644Y-89338027D01*
X87061217Y-89495527D01*
X87094813Y-89495527D01*
X87191423Y-89338027D01*
X87191423Y-89242443D01*
X87093567Y-89086189D01*
X87060375Y-89086189D01*
X86964644Y-89242443D01*
X86855870Y-89242443D01*
X86855870Y-89206210D01*
X87008717Y-88983680D01*
X87144822Y-88983680D01*
X87300197Y-89206210D01*
G37*
G36*
X93006413Y-98498000D02*
G01*
X92803117Y-98498000D01*
X92723323Y-98412747D01*
X92723323Y-98158856D01*
X92916104Y-98158856D01*
X92916104Y-98242424D01*
X92814474Y-98242424D01*
X92814474Y-98365669D01*
X92848473Y-98398495D01*
X92949296Y-98398495D01*
X93053014Y-98238247D01*
X93053014Y-98142809D01*
X92955158Y-97983221D01*
X92750214Y-97983221D01*
X92761132Y-97883680D01*
X93011871Y-97883680D01*
X93161788Y-98106503D01*
X93161788Y-98274407D01*
X93006413Y-98498000D01*
G37*
G36*
X92613560Y-98498000D02*
G01*
X92510648Y-98498000D01*
X92510648Y-98107125D01*
X92505593Y-98107125D01*
X92301088Y-98498000D01*
X92224628Y-98498000D01*
X92224628Y-97883680D01*
X92327540Y-97883680D01*
X92327540Y-98272905D01*
X92332559Y-98272905D01*
X92534169Y-97883680D01*
X92613560Y-97883680D01*
X92613560Y-98498000D01*
G37*
G36*
X92093030Y-98498000D02*
G01*
X91826317Y-98498000D01*
X91676400Y-98271293D01*
X91676400Y-98139072D01*
X91785174Y-98139072D01*
X91785174Y-98235060D01*
X91883030Y-98398495D01*
X91983414Y-98398495D01*
X91983414Y-97983221D01*
X91883030Y-97983221D01*
X91785174Y-98139072D01*
X91676400Y-98139072D01*
X91676400Y-98102839D01*
X91826317Y-97883680D01*
X92093030Y-97883680D01*
X92093030Y-98498000D01*
G37*
G36*
X102134091Y-82998000D02*
G01*
X102031179Y-82998000D01*
X102031179Y-82607125D01*
X102026123Y-82607125D01*
X101821618Y-82998000D01*
X101745158Y-82998000D01*
X101745158Y-82383680D01*
X101848070Y-82383680D01*
X101848070Y-82772905D01*
X101853089Y-82772905D01*
X102054699Y-82383680D01*
X102134091Y-82383680D01*
X102134091Y-82998000D01*
G37*
G36*
X101491341Y-82998000D02*
G01*
X101226716Y-82998000D01*
X101212868Y-82898495D01*
X101433785Y-82898495D01*
X101532484Y-82738027D01*
X101532484Y-82642443D01*
X101433785Y-82483221D01*
X101212868Y-82483221D01*
X101226716Y-82383680D01*
X101491341Y-82383680D01*
X101641257Y-82605770D01*
X101641257Y-82774664D01*
X101491341Y-82998000D01*
G37*
G36*
X86434933Y-101198000D02*
G01*
X86034241Y-101198000D01*
X86034241Y-101106885D01*
X86178295Y-101106885D01*
X86178295Y-100583680D01*
X86265673Y-100583680D01*
X86424822Y-100632956D01*
X86424822Y-100730189D01*
X86288351Y-100689339D01*
X86288351Y-101106885D01*
X86434933Y-101106885D01*
X86434933Y-101198000D01*
G37*
G36*
X88848782Y-90898000D02*
G01*
X88761404Y-90898000D01*
X88761404Y-90481040D01*
X88755945Y-90481040D01*
X88659774Y-90734345D01*
X88625336Y-90734345D01*
X88526235Y-90481040D01*
X88519494Y-90481040D01*
X88519494Y-90898000D01*
X88430467Y-90898000D01*
X88430467Y-90283680D01*
X88524549Y-90283680D01*
X88635851Y-90552555D01*
X88641713Y-90552555D01*
X88741693Y-90283680D01*
X88848782Y-90283680D01*
X88848782Y-90898000D01*
G37*
G36*
X88341257Y-90506210D02*
G01*
X88341257Y-90674261D01*
X88185882Y-90898000D01*
X88052745Y-90898000D01*
X87896931Y-90674261D01*
X87896931Y-90542443D01*
X88005704Y-90542443D01*
X88005704Y-90638027D01*
X88102278Y-90795527D01*
X88135874Y-90795527D01*
X88232484Y-90638027D01*
X88232484Y-90542443D01*
X88134628Y-90386189D01*
X88101435Y-90386189D01*
X88005704Y-90542443D01*
X87896931Y-90542443D01*
X87896931Y-90506210D01*
X88049778Y-90283680D01*
X88185882Y-90283680D01*
X88341257Y-90506210D01*
G37*
G36*
X87791345Y-90898000D02*
G01*
X87505727Y-90898000D01*
X87398639Y-90770248D01*
X87398639Y-90680123D01*
X87677955Y-90467448D01*
X87677955Y-90437993D01*
X87635530Y-90381572D01*
X87405783Y-90381572D01*
X87416700Y-90283680D01*
X87691364Y-90283680D01*
X87798489Y-90411431D01*
X87798489Y-90501557D01*
X87519173Y-90714231D01*
X87519173Y-90743724D01*
X87561598Y-90800144D01*
X87802665Y-90800144D01*
X87791345Y-90898000D01*
G37*
G36*
X87268286Y-90898000D02*
G01*
X86887780Y-90898000D01*
X86879354Y-90806885D01*
X87024288Y-90806885D01*
X87024288Y-90374831D01*
X86879354Y-90374831D01*
X86887780Y-90283680D01*
X87268286Y-90283680D01*
X87276676Y-90374831D01*
X87134307Y-90374831D01*
X87134307Y-90806885D01*
X87276676Y-90806885D01*
X87268286Y-90898000D01*
G37*
G36*
X88332405Y-98498000D02*
G01*
X88046788Y-98498000D01*
X87939699Y-98370248D01*
X87939699Y-98280123D01*
X88219016Y-98067448D01*
X88219016Y-98037993D01*
X88176591Y-97981572D01*
X87946844Y-97981572D01*
X87957761Y-97883680D01*
X88232424Y-97883680D01*
X88339549Y-98011431D01*
X88339549Y-98101557D01*
X88060233Y-98314231D01*
X88060233Y-98343724D01*
X88102658Y-98400144D01*
X88343726Y-98400144D01*
X88332405Y-98498000D01*
G37*
G36*
X87691341Y-98498000D02*
G01*
X87426716Y-98498000D01*
X87412868Y-98398495D01*
X87633785Y-98398495D01*
X87732484Y-98238027D01*
X87732484Y-98142443D01*
X87633785Y-97983221D01*
X87412868Y-97983221D01*
X87426716Y-97883680D01*
X87691341Y-97883680D01*
X87841257Y-98105770D01*
X87841257Y-98274664D01*
X87691341Y-98498000D01*
G37*
G36*
X87281673Y-98498000D02*
G01*
X86902412Y-98498000D01*
X86891092Y-98406885D01*
X87171653Y-98406885D01*
X87171653Y-97883680D01*
X87281673Y-97883680D01*
X87281673Y-98498000D01*
G37*
G36*
X86494869Y-98498000D02*
G01*
X86375177Y-98498000D01*
X86375177Y-98359624D01*
X86497800Y-98182596D01*
X86375177Y-98022239D01*
X86375177Y-97883680D01*
X86486479Y-97883680D01*
X86486479Y-98003298D01*
X86587705Y-98143945D01*
X86662883Y-98143945D01*
X86662883Y-97883680D01*
X86774991Y-97883680D01*
X86774991Y-98498000D01*
X86662883Y-98498000D01*
X86662883Y-98235096D01*
X86596938Y-98235096D01*
X86494869Y-98389922D01*
X86494869Y-98498000D01*
G37*
G36*
X103548782Y-98498000D02*
G01*
X103461404Y-98498000D01*
X103461404Y-98064627D01*
X103455945Y-98064627D01*
X103338782Y-98334345D01*
X103306871Y-98334345D01*
X103186741Y-98064627D01*
X103180036Y-98064627D01*
X103180036Y-98498000D01*
X103090973Y-98498000D01*
X103090973Y-97883680D01*
X103187986Y-97883680D01*
X103316104Y-98152152D01*
X103321966Y-98152152D01*
X103440008Y-97883680D01*
X103548782Y-97883680D01*
X103548782Y-98498000D01*
G37*
G36*
X102958093Y-98498000D02*
G01*
X102628841Y-98498000D01*
X102620415Y-98406885D01*
X102739703Y-98406885D01*
X102739703Y-97974831D01*
X102620415Y-97974831D01*
X102628841Y-97883680D01*
X102958093Y-97883680D01*
X102966519Y-97974831D01*
X102849759Y-97974831D01*
X102849759Y-98406885D01*
X102966519Y-98406885D01*
X102958093Y-98498000D01*
G37*
G36*
X102491345Y-98498000D02*
G01*
X102205727Y-98498000D01*
X102098639Y-98370248D01*
X102098639Y-98280123D01*
X102377955Y-98067448D01*
X102377955Y-98037993D01*
X102335530Y-97981572D01*
X102105783Y-97981572D01*
X102116700Y-97883680D01*
X102391364Y-97883680D01*
X102498489Y-98011431D01*
X102498489Y-98101557D01*
X102219173Y-98314231D01*
X102219173Y-98343724D01*
X102261598Y-98400144D01*
X102502665Y-98400144D01*
X102491345Y-98498000D01*
G37*
G36*
X102000197Y-98106210D02*
G01*
X102000197Y-98274261D01*
X101844822Y-98498000D01*
X101711685Y-98498000D01*
X101555870Y-98274261D01*
X101555870Y-98142443D01*
X101664644Y-98142443D01*
X101664644Y-98238027D01*
X101761217Y-98395527D01*
X101794813Y-98395527D01*
X101891423Y-98238027D01*
X101891423Y-98142443D01*
X101793567Y-97986189D01*
X101760375Y-97986189D01*
X101664644Y-98142443D01*
X101555870Y-98142443D01*
X101555870Y-98106210D01*
X101708717Y-97883680D01*
X101844822Y-97883680D01*
X102000197Y-98106210D01*
G37*
G36*
X88848782Y-94598000D02*
G01*
X88761404Y-94598000D01*
X88761404Y-94181040D01*
X88755945Y-94181040D01*
X88659774Y-94434345D01*
X88625336Y-94434345D01*
X88526235Y-94181040D01*
X88519494Y-94181040D01*
X88519494Y-94598000D01*
X88430467Y-94598000D01*
X88430467Y-93983680D01*
X88524549Y-93983680D01*
X88635851Y-94252555D01*
X88641713Y-94252555D01*
X88741693Y-93983680D01*
X88848782Y-93983680D01*
X88848782Y-94598000D01*
G37*
G36*
X88341257Y-94206210D02*
G01*
X88341257Y-94374261D01*
X88185882Y-94598000D01*
X88052745Y-94598000D01*
X87896931Y-94374261D01*
X87896931Y-94242443D01*
X88005704Y-94242443D01*
X88005704Y-94338027D01*
X88102278Y-94495527D01*
X88135874Y-94495527D01*
X88232484Y-94338027D01*
X88232484Y-94242443D01*
X88134628Y-94086189D01*
X88101435Y-94086189D01*
X88005704Y-94242443D01*
X87896931Y-94242443D01*
X87896931Y-94206210D01*
X88049778Y-93983680D01*
X88185882Y-93983680D01*
X88341257Y-94206210D01*
G37*
G36*
X87643517Y-94598000D02*
G01*
X87533461Y-94598000D01*
X87533461Y-94074831D01*
X87354125Y-94074831D01*
X87362112Y-93983680D01*
X87814426Y-93983680D01*
X87822009Y-94074831D01*
X87643517Y-94074831D01*
X87643517Y-94598000D01*
G37*
G36*
X87217032Y-94598000D02*
G01*
X86887780Y-94598000D01*
X86879354Y-94506885D01*
X86998642Y-94506885D01*
X86998642Y-94074831D01*
X86879354Y-94074831D01*
X86887780Y-93983680D01*
X87217032Y-93983680D01*
X87225458Y-94074831D01*
X87108698Y-94074831D01*
X87108698Y-94506885D01*
X87225458Y-94506885D01*
X87217032Y-94598000D01*
G37*
G36*
X86779666Y-94206210D02*
G01*
X86779666Y-94374261D01*
X86624291Y-94598000D01*
X86491154Y-94598000D01*
X86335340Y-94374261D01*
X86335340Y-94242443D01*
X86444113Y-94242443D01*
X86444113Y-94338027D01*
X86540687Y-94495527D01*
X86574282Y-94495527D01*
X86670893Y-94338027D01*
X86670893Y-94242443D01*
X86573037Y-94086189D01*
X86539844Y-94086189D01*
X86444113Y-94242443D01*
X86335340Y-94242443D01*
X86335340Y-94206210D01*
X86488187Y-93983680D01*
X86624291Y-93983680D01*
X86779666Y-94206210D01*
G37*
G36*
X86231439Y-94598000D02*
G01*
X86128527Y-94598000D01*
X86128527Y-94207125D01*
X86123471Y-94207125D01*
X85918967Y-94598000D01*
X85842506Y-94598000D01*
X85842506Y-93983680D01*
X85945418Y-93983680D01*
X85945418Y-94372905D01*
X85950437Y-94372905D01*
X86152048Y-93983680D01*
X86231439Y-93983680D01*
X86231439Y-94598000D01*
G37*
G36*
X85602538Y-94680908D02*
G01*
X85334579Y-93983680D01*
X85448408Y-93983680D01*
X85716770Y-94680908D01*
X85602538Y-94680908D01*
G37*
G36*
X85190378Y-94598000D02*
G01*
X85087466Y-94598000D01*
X85087466Y-94207125D01*
X85082411Y-94207125D01*
X84877906Y-94598000D01*
X84801446Y-94598000D01*
X84801446Y-93983680D01*
X84904357Y-93983680D01*
X84904357Y-94372905D01*
X84909377Y-94372905D01*
X85110987Y-93983680D01*
X85190378Y-93983680D01*
X85190378Y-94598000D01*
G37*
G36*
X84547629Y-94598000D02*
G01*
X84283004Y-94598000D01*
X84269155Y-94498495D01*
X84490073Y-94498495D01*
X84588771Y-94338027D01*
X84588771Y-94242443D01*
X84490073Y-94083221D01*
X84269155Y-94083221D01*
X84283004Y-93983680D01*
X84547629Y-93983680D01*
X84697545Y-94205770D01*
X84697545Y-94374664D01*
X84547629Y-94598000D01*
G37*
G36*
X104134091Y-91798000D02*
G01*
X104031179Y-91798000D01*
X104031179Y-91407125D01*
X104026123Y-91407125D01*
X103821618Y-91798000D01*
X103745158Y-91798000D01*
X103745158Y-91183680D01*
X103848070Y-91183680D01*
X103848070Y-91572905D01*
X103853089Y-91572905D01*
X104054699Y-91183680D01*
X104134091Y-91183680D01*
X104134091Y-91798000D01*
G37*
G36*
X103613560Y-91798000D02*
G01*
X103501416Y-91798000D01*
X103501416Y-91554147D01*
X103410265Y-91554147D01*
X103316622Y-91698385D01*
X103316622Y-91798000D01*
X103204881Y-91798000D01*
X103204881Y-91689959D01*
X103315340Y-91530663D01*
X103201107Y-91428338D01*
X103201107Y-91347774D01*
X103309881Y-91347774D01*
X103309881Y-91400091D01*
X103388429Y-91481094D01*
X103501416Y-91481094D01*
X103501416Y-91281975D01*
X103388429Y-91281975D01*
X103309881Y-91347774D01*
X103201107Y-91347774D01*
X103201107Y-91307291D01*
X103343476Y-91183680D01*
X103613560Y-91183680D01*
X103613560Y-91798000D01*
G37*
G36*
X103088817Y-91798000D02*
G01*
X102713330Y-91798000D01*
X102702412Y-91706885D01*
X102979200Y-91706885D01*
X102979200Y-91532825D01*
X102768358Y-91532825D01*
X102768358Y-91446290D01*
X102979200Y-91446290D01*
X102979200Y-91274831D01*
X102716297Y-91274831D01*
X102727618Y-91183680D01*
X103088817Y-91183680D01*
X103088817Y-91798000D01*
G37*
G36*
X102570814Y-91798000D02*
G01*
X102285197Y-91798000D01*
X102178108Y-91670248D01*
X102178108Y-91580123D01*
X102457424Y-91367448D01*
X102457424Y-91337993D01*
X102415000Y-91281572D01*
X102185252Y-91281572D01*
X102196170Y-91183680D01*
X102470833Y-91183680D01*
X102577958Y-91311431D01*
X102577958Y-91401557D01*
X102298642Y-91614231D01*
X102298642Y-91643724D01*
X102341067Y-91700144D01*
X102582135Y-91700144D01*
X102570814Y-91798000D01*
G37*
G36*
X102047756Y-91798000D02*
G01*
X101703777Y-91798000D01*
X101692859Y-91706885D01*
X101938140Y-91706885D01*
X101938140Y-91532825D01*
X101752906Y-91532825D01*
X101752906Y-91446290D01*
X101938140Y-91446290D01*
X101938140Y-91274831D01*
X101706707Y-91274831D01*
X101718065Y-91183680D01*
X102047756Y-91183680D01*
X102047756Y-91798000D01*
G37*
G36*
X101403321Y-91798000D02*
G01*
X101293302Y-91798000D01*
X101293302Y-91274831D01*
X101113967Y-91274831D01*
X101121917Y-91183680D01*
X101574267Y-91183680D01*
X101581814Y-91274831D01*
X101403321Y-91274831D01*
X101403321Y-91798000D01*
G37*
M02*
