%TF.GenerationSoftware,KiCad,Pcbnew,9.0.5*%
%TF.CreationDate,2025-11-21T21:53:36+01:00*%
%TF.ProjectId,keyballTrackballPCB,6b657962-616c-46c5-9472-61636b62616c,1.0*%
%TF.SameCoordinates,Original*%
%TF.FileFunction,Copper,L1,Top*%
%TF.FilePolarity,Positive*%
%FSLAX46Y46*%
G04 Gerber Fmt 4.6, Leading zero omitted, Abs format (unit mm)*
G04 Created by KiCad (PCBNEW 9.0.5) date 2025-11-21 21:53:36*
%MOMM*%
%LPD*%
G01*
G04 APERTURE LIST*
G04 Aperture macros list*
%AMRoundRect*
0 Rectangle with rounded corners*
0 $1 Rounding radius*
0 $2 $3 $4 $5 $6 $7 $8 $9 X,Y pos of 4 corners*
0 Add a 4 corners polygon primitive as box body*
4,1,4,$2,$3,$4,$5,$6,$7,$8,$9,$2,$3,0*
0 Add four circle primitives for the rounded corners*
1,1,$1+$1,$2,$3*
1,1,$1+$1,$4,$5*
1,1,$1+$1,$6,$7*
1,1,$1+$1,$8,$9*
0 Add four rect primitives between the rounded corners*
20,1,$1+$1,$2,$3,$4,$5,0*
20,1,$1+$1,$4,$5,$6,$7,0*
20,1,$1+$1,$6,$7,$8,$9,0*
20,1,$1+$1,$8,$9,$2,$3,0*%
G04 Aperture macros list end*
%TA.AperFunction,SMDPad,CuDef*%
%ADD10RoundRect,0.237500X-0.237500X0.300000X-0.237500X-0.300000X0.237500X-0.300000X0.237500X0.300000X0*%
%TD*%
%TA.AperFunction,SMDPad,CuDef*%
%ADD11RoundRect,0.237500X-0.300000X-0.237500X0.300000X-0.237500X0.300000X0.237500X-0.300000X0.237500X0*%
%TD*%
%TA.AperFunction,SMDPad,CuDef*%
%ADD12RoundRect,0.237500X0.237500X-0.250000X0.237500X0.250000X-0.237500X0.250000X-0.237500X-0.250000X0*%
%TD*%
%TA.AperFunction,SMDPad,CuDef*%
%ADD13RoundRect,0.237500X-0.237500X0.250000X-0.237500X-0.250000X0.237500X-0.250000X0.237500X0.250000X0*%
%TD*%
%TA.AperFunction,SMDPad,CuDef*%
%ADD14RoundRect,0.087500X0.537500X0.087500X-0.537500X0.087500X-0.537500X-0.087500X0.537500X-0.087500X0*%
%TD*%
%TA.AperFunction,SMDPad,CuDef*%
%ADD15RoundRect,0.237500X-0.250000X-0.237500X0.250000X-0.237500X0.250000X0.237500X-0.250000X0.237500X0*%
%TD*%
%TA.AperFunction,SMDPad,CuDef*%
%ADD16RoundRect,0.150000X-0.512500X-0.150000X0.512500X-0.150000X0.512500X0.150000X-0.512500X0.150000X0*%
%TD*%
%TA.AperFunction,ComponentPad*%
%ADD17R,1.700000X1.700000*%
%TD*%
%TA.AperFunction,ComponentPad*%
%ADD18R,1.400000X1.400000*%
%TD*%
%TA.AperFunction,ComponentPad*%
%ADD19C,1.400000*%
%TD*%
%TA.AperFunction,ComponentPad*%
%ADD20C,1.700000*%
%TD*%
%TA.AperFunction,ViaPad*%
%ADD21C,0.600000*%
%TD*%
%TA.AperFunction,Conductor*%
%ADD22C,0.200000*%
%TD*%
G04 APERTURE END LIST*
D10*
%TO.P,C5,1*%
%TO.N,Net-(U4-VDDPIX)*%
X104000000Y-81075000D03*
%TO.P,C5,2*%
%TO.N,GND*%
X104000000Y-82800000D03*
%TD*%
D11*
%TO.P,C1,1*%
%TO.N,/5V*%
X90275000Y-97600000D03*
%TO.P,C1,2*%
%TO.N,GND*%
X92000000Y-97600000D03*
%TD*%
D12*
%TO.P,R9,1*%
%TO.N,Net-(U4-~{NRESET})*%
X86000000Y-87000000D03*
%TO.P,R9,2*%
%TO.N,Net-(U2-A2)*%
X86000000Y-85175000D03*
%TD*%
D10*
%TO.P,C4,1*%
%TO.N,/1.9V*%
X105200000Y-85600000D03*
%TO.P,C4,2*%
%TO.N,GND*%
X105200000Y-87325000D03*
%TD*%
D13*
%TO.P,R10,1*%
%TO.N,/1.9V*%
X86000000Y-93575000D03*
%TO.P,R10,2*%
%TO.N,Net-(U4-~{NRESET})*%
X86000000Y-95400000D03*
%TD*%
%TO.P,R11,1*%
%TO.N,/1.9V*%
X104000000Y-93575000D03*
%TO.P,R11,2*%
%TO.N,Net-(U4-VDDIO)*%
X104000000Y-95400000D03*
%TD*%
D12*
%TO.P,R8,1*%
%TO.N,/1.9V*%
X86000000Y-91225000D03*
%TO.P,R8,2*%
%TO.N,Net-(U4-LED_P)*%
X86000000Y-89400000D03*
%TD*%
D10*
%TO.P,C7,1*%
%TO.N,/1.9V*%
X105000000Y-101875000D03*
%TO.P,C7,2*%
%TO.N,GND*%
X105000000Y-103600000D03*
%TD*%
D14*
%TO.P,U2,1,B2*%
%TO.N,/NCS*%
X89400000Y-103550000D03*
%TO.P,U2,2,GND*%
%TO.N,GND*%
X89400000Y-103050000D03*
%TO.P,U2,3,VCCA*%
%TO.N,/1.9V*%
X89400000Y-102550000D03*
%TO.P,U2,4,A2*%
%TO.N,Net-(U2-A2)*%
X89400000Y-102050000D03*
%TO.P,U2,5,A1*%
%TO.N,Net-(U2-A1)*%
X86600000Y-102050000D03*
%TO.P,U2,6,OE*%
%TO.N,Net-(U2-OE)*%
X86600000Y-102550000D03*
%TO.P,U2,7,VCCB*%
%TO.N,/5V*%
X86600000Y-103050000D03*
%TO.P,U2,8,B1*%
%TO.N,/SCLK*%
X86600000Y-103550000D03*
%TD*%
%TO.P,U3,1,B2*%
%TO.N,/MISO*%
X103000000Y-103950000D03*
%TO.P,U3,2,GND*%
%TO.N,GND*%
X103000000Y-103450000D03*
%TO.P,U3,3,VCCA*%
%TO.N,/1.9V*%
X103000000Y-102950000D03*
%TO.P,U3,4,A2*%
%TO.N,Net-(U3-A2)*%
X103000000Y-102450000D03*
%TO.P,U3,5,A1*%
%TO.N,Net-(U3-A1)*%
X100200000Y-102450000D03*
%TO.P,U3,6,OE*%
%TO.N,Net-(U3-OE)*%
X100200000Y-102950000D03*
%TO.P,U3,7,VCCB*%
%TO.N,/5V*%
X100200000Y-103450000D03*
%TO.P,U3,8,B1*%
%TO.N,/MOSI*%
X100200000Y-103950000D03*
%TD*%
D10*
%TO.P,C6,1*%
%TO.N,Net-(U4-VDDPIX)*%
X102600000Y-84600000D03*
%TO.P,C6,2*%
%TO.N,GND*%
X102600000Y-86325000D03*
%TD*%
D12*
%TO.P,R2,1*%
%TO.N,Net-(U1-FB)*%
X98000000Y-104000000D03*
%TO.P,R2,2*%
%TO.N,GND*%
X98000000Y-102175000D03*
%TD*%
D15*
%TO.P,R4,1*%
%TO.N,Net-(U2-OE)*%
X86575000Y-97600000D03*
%TO.P,R4,2*%
%TO.N,GND*%
X88400000Y-97600000D03*
%TD*%
D12*
%TO.P,R7,1*%
%TO.N,Net-(U2-A2)*%
X85000000Y-83025000D03*
%TO.P,R7,2*%
%TO.N,Net-(U4-~{NCS})*%
X85000000Y-81200000D03*
%TD*%
D13*
%TO.P,R5,1*%
%TO.N,/1.9V*%
X102200000Y-93575000D03*
%TO.P,R5,2*%
%TO.N,Net-(U3-OE)*%
X102200000Y-95400000D03*
%TD*%
%TO.P,R3,1*%
%TO.N,/1.9V*%
X84800000Y-97600000D03*
%TO.P,R3,2*%
%TO.N,Net-(U2-OE)*%
X84800000Y-99425000D03*
%TD*%
D10*
%TO.P,C3,1*%
%TO.N,/1.9V*%
X104000000Y-89200000D03*
%TO.P,C3,2*%
%TO.N,Net-(U1-FB)*%
X104000000Y-90925000D03*
%TD*%
D16*
%TO.P,U1,1,IN*%
%TO.N,/5V*%
X93925000Y-102100000D03*
%TO.P,U1,2,GND*%
%TO.N,GND*%
X93925000Y-103050000D03*
%TO.P,U1,3,EN*%
%TO.N,/5V*%
X93925000Y-104000000D03*
%TO.P,U1,4,FB*%
%TO.N,Net-(U1-FB)*%
X96200000Y-104000000D03*
%TO.P,U1,5,OUT*%
%TO.N,/1.9V*%
X96200000Y-102100000D03*
%TD*%
D15*
%TO.P,R6,1*%
%TO.N,Net-(U3-OE)*%
X99200000Y-97600000D03*
%TO.P,R6,2*%
%TO.N,GND*%
X101025000Y-97600000D03*
%TD*%
D13*
%TO.P,R1,1*%
%TO.N,/1.9V*%
X104800000Y-97600000D03*
%TO.P,R1,2*%
%TO.N,Net-(U1-FB)*%
X104800000Y-99425000D03*
%TD*%
D11*
%TO.P,C2,1*%
%TO.N,/5V*%
X94275000Y-97600000D03*
%TO.P,C2,2*%
%TO.N,GND*%
X96000000Y-97600000D03*
%TD*%
D17*
%TO.P,J2,1,Pin_1*%
%TO.N,/1.9V*%
X87000000Y-81200000D03*
%TD*%
D18*
%TO.P,U4,1,NC*%
%TO.N,unconnected-(U4-NC-Pad1)*%
X100350000Y-80880000D03*
D19*
%TO.P,U4,2,NC*%
%TO.N,unconnected-(U4-NC-Pad2)*%
X100350000Y-82660000D03*
%TO.P,U4,3,VDDPIX*%
%TO.N,Net-(U4-VDDPIX)*%
X100350000Y-84440000D03*
%TO.P,U4,4,VDD*%
%TO.N,/1.9V*%
X100350000Y-86220000D03*
%TO.P,U4,5,VDDIO*%
%TO.N,Net-(U4-VDDIO)*%
X100350000Y-88000000D03*
%TO.P,U4,6,NC*%
%TO.N,unconnected-(U4-NC-Pad6)*%
X100350000Y-89780000D03*
%TO.P,U4,7,~{NRESET}*%
%TO.N,Net-(U4-~{NRESET})*%
X100350000Y-91560000D03*
%TO.P,U4,8,GND*%
%TO.N,GND*%
X100350000Y-93340000D03*
%TO.P,U4,9,MOTION*%
%TO.N,unconnected-(U4-MOTION-Pad9)*%
X89650000Y-94230000D03*
%TO.P,U4,10,SCLK*%
%TO.N,Net-(U2-A1)*%
X89650000Y-92450000D03*
%TO.P,U4,11,MOSI*%
%TO.N,Net-(U3-A1)*%
X89650000Y-90670000D03*
%TO.P,U4,12,MISO*%
%TO.N,Net-(U3-A2)*%
X89650000Y-88890000D03*
%TO.P,U4,13,~{NCS}*%
%TO.N,Net-(U4-~{NCS})*%
X89650000Y-87110000D03*
%TO.P,U4,14,NC*%
%TO.N,unconnected-(U4-NC-Pad14)*%
X89650000Y-85330000D03*
%TO.P,U4,15,LED_P*%
%TO.N,Net-(U4-LED_P)*%
X89650000Y-83550000D03*
%TO.P,U4,16,NC*%
%TO.N,unconnected-(U4-NC-Pad16)*%
X89650000Y-81770000D03*
%TD*%
D17*
%TO.P,J1,1,Pin_1*%
%TO.N,/SCLK*%
X87380000Y-99600000D03*
D20*
%TO.P,J1,2,Pin_2*%
%TO.N,/NCS*%
X89920000Y-99600000D03*
%TO.P,J1,3,Pin_3*%
%TO.N,GND*%
X92460000Y-99600000D03*
%TO.P,J1,4,Pin_4*%
%TO.N,/5V*%
X95000000Y-99600000D03*
%TO.P,J1,5,Pin_5*%
%TO.N,GND*%
X97540000Y-99600000D03*
%TO.P,J1,6,Pin_6*%
%TO.N,/MOSI*%
X100080000Y-99600000D03*
%TO.P,J1,7,Pin_7*%
%TO.N,/MISO*%
X102620000Y-99600000D03*
%TD*%
D21*
%TO.N,GND*%
X103800000Y-85800000D03*
X105399000Y-88600000D03*
X98000000Y-97400000D03*
X102200000Y-101400000D03*
X96000000Y-96600000D03*
X102200000Y-97400000D03*
X93000000Y-97600000D03*
X98900000Y-101700000D03*
%TO.N,/1.9V*%
X91400000Y-102500000D03*
X87400000Y-84800000D03*
X85627817Y-97027817D03*
X96100000Y-101300000D03*
%TO.N,Net-(U1-FB)*%
X105200000Y-100600000D03*
X99000000Y-104200000D03*
X104700000Y-91700000D03*
%TO.N,/SCLK*%
X85407118Y-103550000D03*
%TO.N,Net-(U2-A2)*%
X85012500Y-84187500D03*
X90600000Y-101800000D03*
%TO.N,Net-(U4-LED_P)*%
X86800000Y-88600000D03*
%TO.N,Net-(U4-~{NRESET})*%
X88245644Y-96224000D03*
X84801000Y-95400000D03*
%TO.N,Net-(U3-A2)*%
X103000000Y-101400000D03*
%TO.N,Net-(U3-A1)*%
X100200000Y-101400000D03*
%TD*%
D22*
%TO.N,/5V*%
X95375999Y-103211500D02*
X95375999Y-103196531D01*
X93925000Y-100675000D02*
X95000000Y-99600000D01*
X100200000Y-103450000D02*
X98705634Y-103450000D01*
X94275000Y-97600000D02*
X93475000Y-96800000D01*
X98467134Y-103211500D02*
X95375999Y-103211500D01*
X93925000Y-102100000D02*
X93925000Y-100675000D01*
X95000000Y-98325000D02*
X94275000Y-97600000D01*
X91075000Y-96800000D02*
X90275000Y-97600000D01*
X88425848Y-104199000D02*
X93726000Y-104199000D01*
X98705634Y-103450000D02*
X98467134Y-103211500D01*
X94279468Y-102100000D02*
X93925000Y-102100000D01*
X87276848Y-103050000D02*
X88425848Y-104199000D01*
X95000000Y-99600000D02*
X95000000Y-98325000D01*
X86600000Y-103050000D02*
X87276848Y-103050000D01*
X93726000Y-104199000D02*
X93925000Y-104000000D01*
X95375999Y-103211500D02*
X94587499Y-104000000D01*
X93475000Y-96800000D02*
X91075000Y-96800000D01*
X95375999Y-103196531D02*
X94279468Y-102100000D01*
X94587499Y-104000000D02*
X93925000Y-104000000D01*
%TO.N,GND*%
X98000000Y-102175000D02*
X98425000Y-102175000D01*
X102074000Y-101526000D02*
X102200000Y-101400000D01*
X103800000Y-83000000D02*
X103800000Y-85800000D01*
X97540000Y-99600000D02*
X97540000Y-97860000D01*
X92460000Y-99600000D02*
X91309000Y-98449000D01*
X89249000Y-98449000D02*
X88400000Y-97600000D01*
X102200000Y-97400000D02*
X101225000Y-97400000D01*
X103000000Y-103450000D02*
X104850000Y-103450000D01*
X104000000Y-82800000D02*
X103800000Y-83000000D01*
X101225000Y-97400000D02*
X101025000Y-97600000D01*
X104850000Y-103450000D02*
X105000000Y-103600000D01*
X98425000Y-102175000D02*
X98900000Y-101700000D01*
X96000000Y-97600000D02*
X96000000Y-96600000D01*
X92000000Y-97600000D02*
X93000000Y-97600000D01*
X102600000Y-86325000D02*
X103275000Y-86325000D01*
X91100057Y-103050000D02*
X89400000Y-103050000D01*
X103000000Y-103450000D02*
X102323152Y-103450000D01*
X97540000Y-97860000D02*
X98000000Y-97400000D01*
X92460000Y-99600000D02*
X92460000Y-98060000D01*
X105200000Y-88401000D02*
X105399000Y-88600000D01*
X91400057Y-103350000D02*
X91100057Y-103050000D01*
X102323152Y-103450000D02*
X102074000Y-103200848D01*
X93925000Y-103050000D02*
X93262501Y-103050000D01*
X92460000Y-102247499D02*
X92460000Y-99600000D01*
X92460000Y-98060000D02*
X92000000Y-97600000D01*
X93625000Y-103350000D02*
X91400057Y-103350000D01*
X93925000Y-103050000D02*
X93625000Y-103350000D01*
X91309000Y-98449000D02*
X89249000Y-98449000D01*
X105200000Y-87325000D02*
X105200000Y-88401000D01*
X93262501Y-103050000D02*
X92460000Y-102247499D01*
X102074000Y-103200848D02*
X102074000Y-101526000D01*
X103275000Y-86325000D02*
X103800000Y-85800000D01*
%TO.N,/1.9V*%
X86000000Y-93575000D02*
X86000000Y-91225000D01*
X103925000Y-102950000D02*
X103000000Y-102950000D01*
X89400000Y-102550000D02*
X91350000Y-102550000D01*
X102200000Y-93575000D02*
X102976000Y-94351000D01*
X105200000Y-85600000D02*
X104000000Y-86800000D01*
X96100000Y-101300000D02*
X96100000Y-102000000D01*
X104000000Y-89200000D02*
X103330000Y-89200000D01*
X104000000Y-93575000D02*
X102200000Y-93575000D01*
X85627817Y-97027817D02*
X86776000Y-95879634D01*
X102976000Y-94351000D02*
X102976000Y-95776000D01*
X104024000Y-100899000D02*
X105000000Y-101875000D01*
X104800000Y-97600000D02*
X104024000Y-98376000D01*
X105399000Y-90599000D02*
X105399000Y-97001000D01*
X86000000Y-91225000D02*
X87401000Y-89824000D01*
X84800000Y-97600000D02*
X85055634Y-97600000D01*
X99676240Y-98376000D02*
X104024000Y-98376000D01*
X104000000Y-86800000D02*
X104000000Y-89200000D01*
X87401000Y-84801000D02*
X87400000Y-84800000D01*
X96200000Y-102100000D02*
X97549000Y-100751000D01*
X96100000Y-102000000D02*
X96200000Y-102100000D01*
X98254760Y-100751000D02*
X98929000Y-100076760D01*
X85055634Y-97600000D02*
X85627817Y-97027817D01*
X104024000Y-98376000D02*
X104024000Y-100899000D01*
X86776000Y-95879634D02*
X86776000Y-94351000D01*
X87401000Y-89824000D02*
X87401000Y-84801000D01*
X105000000Y-101875000D02*
X103925000Y-102950000D01*
X98929000Y-99123240D02*
X99676240Y-98376000D01*
X102976000Y-95776000D02*
X104800000Y-97600000D01*
X105399000Y-97001000D02*
X104800000Y-97600000D01*
X91350000Y-102550000D02*
X91400000Y-102500000D01*
X98929000Y-100076760D02*
X98929000Y-99123240D01*
X103330000Y-89200000D02*
X100350000Y-86220000D01*
X104000000Y-89200000D02*
X105399000Y-90599000D01*
X97549000Y-100751000D02*
X98254760Y-100751000D01*
X86776000Y-94351000D02*
X86000000Y-93575000D01*
%TO.N,Net-(U1-FB)*%
X104800000Y-99425000D02*
X104800000Y-100200000D01*
X104800000Y-100200000D02*
X105200000Y-100600000D01*
X104000000Y-90925000D02*
X104000000Y-91000000D01*
X98800000Y-104000000D02*
X99000000Y-104200000D01*
X104000000Y-91000000D02*
X104700000Y-91700000D01*
X98000000Y-104000000D02*
X98800000Y-104000000D01*
X98000000Y-104000000D02*
X96200000Y-104000000D01*
%TO.N,Net-(U4-VDDPIX)*%
X102600000Y-82475000D02*
X102600000Y-84600000D01*
X104000000Y-81075000D02*
X102600000Y-82475000D01*
X102200000Y-84600000D02*
X102040000Y-84440000D01*
X102040000Y-84440000D02*
X100350000Y-84440000D01*
X102600000Y-84600000D02*
X102200000Y-84600000D01*
%TO.N,/MOSI*%
X101126000Y-103700848D02*
X101126000Y-100646000D01*
X100876848Y-103950000D02*
X101126000Y-103700848D01*
X101126000Y-100646000D02*
X100080000Y-99600000D01*
X100200000Y-103950000D02*
X100876848Y-103950000D01*
%TO.N,/NCS*%
X88474000Y-101799152D02*
X89920000Y-100353152D01*
X88723152Y-103550000D02*
X88474000Y-103300848D01*
X89920000Y-100353152D02*
X89920000Y-99600000D01*
X88474000Y-103300848D02*
X88474000Y-101799152D01*
X89400000Y-103550000D02*
X88723152Y-103550000D01*
%TO.N,/SCLK*%
X86600000Y-103550000D02*
X85407118Y-103550000D01*
%TO.N,/MISO*%
X102620000Y-99600000D02*
X101527000Y-100693000D01*
X101950000Y-103950000D02*
X103000000Y-103950000D01*
X101527000Y-100693000D02*
X101527000Y-103527000D01*
X101527000Y-103527000D02*
X101950000Y-103950000D01*
%TO.N,Net-(U2-OE)*%
X85923152Y-102550000D02*
X84800000Y-101426848D01*
X86575000Y-97650000D02*
X84800000Y-99425000D01*
X86575000Y-97600000D02*
X86575000Y-97650000D01*
X84800000Y-101426848D02*
X84800000Y-99425000D01*
X86600000Y-102550000D02*
X85923152Y-102550000D01*
%TO.N,Net-(U3-OE)*%
X99600000Y-100800000D02*
X98772860Y-100800000D01*
X101400000Y-95400000D02*
X99200000Y-97600000D01*
X96389000Y-100076760D02*
X96389000Y-98376000D01*
X97163500Y-102440968D02*
X96903468Y-102701000D01*
X95236500Y-102440968D02*
X95236500Y-101229260D01*
X99547152Y-102926000D02*
X99499152Y-102926000D01*
X99600000Y-101649943D02*
X99599000Y-101648943D01*
X96389000Y-98376000D02*
X96529634Y-98376000D01*
X99523152Y-102950000D02*
X99547152Y-102926000D01*
X95496532Y-102701000D02*
X95236500Y-102440968D01*
X97163500Y-101703600D02*
X97163500Y-102440968D01*
X99499152Y-102926000D02*
X99274000Y-102700848D01*
X96529634Y-98376000D02*
X96838500Y-98067134D01*
X99200000Y-97200000D02*
X99200000Y-97600000D01*
X99600000Y-101974000D02*
X99600000Y-101649943D01*
X98420860Y-101152000D02*
X97715100Y-101152000D01*
X97175000Y-96625000D02*
X98625000Y-96625000D01*
X95236500Y-101229260D02*
X96389000Y-100076760D01*
X98625000Y-96625000D02*
X99200000Y-97200000D01*
X96838500Y-96961500D02*
X97175000Y-96625000D01*
X97715100Y-101152000D02*
X97163500Y-101703600D01*
X99274000Y-102199152D02*
X99499152Y-101974000D01*
X98772860Y-100800000D02*
X98420860Y-101152000D01*
X96838500Y-98067134D02*
X96838500Y-96961500D01*
X99600000Y-101150057D02*
X99600000Y-100800000D01*
X99499152Y-101974000D02*
X99600000Y-101974000D01*
X102200000Y-95400000D02*
X101400000Y-95400000D01*
X99599000Y-101151057D02*
X99600000Y-101150057D01*
X96903468Y-102701000D02*
X95496532Y-102701000D01*
X99599000Y-101648943D02*
X99599000Y-101151057D01*
X99274000Y-102700848D02*
X99274000Y-102199152D01*
X100200000Y-102950000D02*
X99523152Y-102950000D01*
%TO.N,Net-(U4-~{NCS})*%
X85000000Y-81502000D02*
X88180186Y-84682186D01*
X85000000Y-81200000D02*
X85000000Y-81502000D01*
X88180186Y-85640186D02*
X89650000Y-87110000D01*
X88180186Y-84682186D02*
X88180186Y-85640186D01*
%TO.N,Net-(U2-A2)*%
X85000000Y-84175000D02*
X85012500Y-84187500D01*
X89400000Y-102050000D02*
X90350000Y-102050000D01*
X90350000Y-102050000D02*
X90600000Y-101800000D01*
X85012500Y-84187500D02*
X86000000Y-85175000D01*
X85000000Y-83025000D02*
X85000000Y-84175000D01*
%TO.N,Net-(U4-LED_P)*%
X86000000Y-89400000D02*
X86800000Y-88600000D01*
%TO.N,Net-(U4-~{NRESET})*%
X98911058Y-95961000D02*
X99051058Y-96101000D01*
X101351000Y-92561000D02*
X100350000Y-91560000D01*
X84601000Y-88399000D02*
X84601000Y-95200000D01*
X101351000Y-94449000D02*
X101351000Y-92561000D01*
X90150058Y-95800000D02*
X90451058Y-96101000D01*
X86000000Y-87000000D02*
X84601000Y-88399000D01*
X91088942Y-95961000D02*
X98911058Y-95961000D01*
X88245644Y-96224000D02*
X88669644Y-95800000D01*
X99051058Y-96101000D02*
X99548942Y-96101000D01*
X100000000Y-95800000D02*
X101351000Y-94449000D01*
X90948942Y-96101000D02*
X91088942Y-95961000D01*
X84601000Y-95200000D02*
X84801000Y-95400000D01*
X99548942Y-96101000D02*
X99849942Y-95800000D01*
X90451058Y-96101000D02*
X90948942Y-96101000D01*
X88669644Y-95800000D02*
X90150058Y-95800000D01*
X99849942Y-95800000D02*
X100000000Y-95800000D01*
X84801000Y-95400000D02*
X86000000Y-95400000D01*
%TO.N,Net-(U4-VDDIO)*%
X103224000Y-90874000D02*
X103224000Y-91543366D01*
X103224000Y-91543366D02*
X104776000Y-93095366D01*
X104776000Y-93095366D02*
X104776000Y-94624000D01*
X100350000Y-88000000D02*
X103224000Y-90874000D01*
X104776000Y-94624000D02*
X104000000Y-95400000D01*
%TO.N,Net-(U2-A1)*%
X87232000Y-102050000D02*
X88600000Y-100682000D01*
X87054634Y-96824000D02*
X87000000Y-96824000D01*
X86600000Y-102050000D02*
X87232000Y-102050000D01*
X88600000Y-100682000D02*
X88600000Y-98655634D01*
X88649000Y-93451000D02*
X89650000Y-92450000D01*
X87000000Y-96824000D02*
X87000000Y-96222734D01*
X88649000Y-94551000D02*
X88649000Y-93451000D01*
X87177000Y-96045734D02*
X87177000Y-96023000D01*
X87000000Y-96222734D02*
X87177000Y-96045734D01*
X87920366Y-98376000D02*
X87363500Y-97819134D01*
X88600000Y-98655634D02*
X88320366Y-98376000D01*
X87177000Y-96023000D02*
X88649000Y-94551000D01*
X87363500Y-97819134D02*
X87363500Y-97132866D01*
X88320366Y-98376000D02*
X87920366Y-98376000D01*
X87363500Y-97132866D02*
X87054634Y-96824000D01*
%TO.N,Net-(U3-A2)*%
X103000000Y-102450000D02*
X103000000Y-101400000D01*
%TO.N,Net-(U3-A1)*%
X100200000Y-102450000D02*
X100200000Y-101400000D01*
%TD*%
%TA.AperFunction,Conductor*%
%TO.N,/5V*%
G36*
X94776775Y-100176775D02*
G01*
X94233188Y-100720363D01*
X94222820Y-100769719D01*
X94201253Y-100798746D01*
X94200000Y-100799998D01*
X94200000Y-101223638D01*
X94180315Y-101290677D01*
X94175000Y-101297272D01*
X94175000Y-101976000D01*
X94167953Y-102000000D01*
X93680221Y-102000000D01*
X93675000Y-101976000D01*
X93675000Y-101300000D01*
X93638681Y-101263681D01*
X93640752Y-101261609D01*
X93611206Y-101227511D01*
X93600000Y-101176000D01*
X93600000Y-100651361D01*
X93608644Y-100621920D01*
X93615168Y-100591934D01*
X93618922Y-100586918D01*
X93619685Y-100584322D01*
X93636309Y-100563690D01*
X93801253Y-100398746D01*
X93862571Y-100365265D01*
X93882537Y-100363908D01*
X94423222Y-99823222D01*
X94776775Y-100176775D01*
G37*
%TD.AperFunction*%
%TD*%
M02*
